<?xml version="1.0" standalone="no"?>
<!DOCTYPE svg PUBLIC "-//W3C//DTD SVG 1.0//EN" "http://www.w3.org/TR/2001/REC-SVG-20010904/DTD/svg10.dtd">
<svg xmlns="http://www.w3.org/2000/svg" xmlns:xlink="http://www.w3.org/1999/xlink" id="body_1" width="150" height="150">

<g transform="matrix(0.75 0 0 0.75 0 0)">
	<g transform="matrix(1.333333 0 0 1.333333 0 0)">
	</g>
    <path transform="matrix(1.333333 0 0 1.333333 0 0)"  d="M104.0352 11.91797L99.65234 21.16406L99.65234 92.16016L117.1914 92.16016L117.1914 21.16406L112.8203 11.93359C 110.4141 6.855469 108.4414 2.695312 108.4336 2.6875C 108.4258 2.675781 106.4492 6.832031 104.0352 11.91797M105.3477 25.94141L105.5781 26.18359L105.6328 35.17578L103.918 35.17578L103.918 30.6875C 103.918 26.28516 103.9219 26.19141 104.1172 25.94531C 104.3945 25.59375 105.0195 25.58984 105.3477 25.94141M109.0469 25.94141L109.2773 26.18359L109.3047 30.67969L109.3281 35.17578L107.6172 35.17578L107.6172 26.16016L107.8477 25.92969C 108.1758 25.60156 108.7344 25.60547 109.0469 25.94141M112.7422 25.94141L112.9727 26.18359L113.0273 35.17578L111.3125 35.17578L111.3125 26.16016L111.5469 25.92969C 111.875 25.60156 112.4297 25.60547 112.7422 25.94141M77.37109 63.71875L77.37109 92.16016L94.91016 92.16016L94.91016 35.27344L77.37109 35.27344L77.37109 63.71875L104.0352 11.91797zM110.207 39.24219C 113.3398 40.75391 113.3398 45.23047 110.207 46.76172C 109.2344 47.23438 107.6094 47.23438 106.6406 46.76172C 103.3203 45.13672 103.5742 40.34375 107.0469 39.0625C 107.9023 38.75 109.3555 38.82813 110.207 39.24219M55.08984 73.19922L55.08984 92.16016L72.62891 92.16016L72.62891 54.23438L55.08984 54.23438L55.08984 73.19922zM32.80859 82.67969L32.80859 92.16016L50.34766 92.16016L50.34766 73.19922L32.80859 73.19922L32.80859 82.67969zM59.6875 98.66016C 59.58203 98.6875 59.26172 98.75391 58.97656 98.80859C 57.06641 99.17969 55.59766 100.582 54.88281 102.7148C 53.875 105.7227 54.12891 112.6563 55.33594 115.1016C 57.21094 118.8984 63.07422 119.6836 66.16016 116.5469L66.16016 116.5469L66.84766 115.8477L66.84766 108.6602L60.96875 108.6602L60.96875 110.6523L64.47656 110.6523L64.47656 115.1992L64 115.5742C 61.92969 117.2109 58.53125 116.5117 57.42969 114.2266C 56.44531 112.1797 56.39844 104.6758 57.35938 102.6211C 58.05469 101.1367 59.5625 100.4102 61.39844 100.6836C 63.20703 100.9531 64.07813 101.9492 64.42578 104.1328L64.42578 104.1328L64.48438 104.4883L66.83203 104.4883L66.78516 104.1328C 66.28516 100.4805 64.47656 98.75 61.0625 98.65234C 60.41016 98.63281 59.79297 98.63672 59.6875 98.66016M33.08984 108.5742L33.08984 118.2578L36.48047 118.2109C 40.16797 118.1602 40.44922 118.125 41.57813 117.5742C 44.94141 115.9375 45.08984 109.7656 41.80469 108.2578C 41.24609 108.0039 41.24609 107.9961 41.69141 107.7578C 44.60547 106.1992 44.48438 100.9336 41.50391 99.48438C 40.40625 98.95313 39.89453 98.89453 36.32031 98.89453L36.32031 98.89453L33.08984 98.89453L33.08984 108.5742zM48.07031 108.5664L48.07031 118.2383L50.34766 118.2383L50.34766 98.89453L48.07031 98.89453L48.07031 108.5664zM77.17969 108.5664L77.17969 118.2383L79.45703 118.2383L79.45703 110.3672L83.01172 110.3672L86.44531 118.1875L87.75 118.2148C 88.78125 118.2383 89.04688 118.2148 89.00781 118.1211C 88.98047 118.0547 88.13672 116.207 87.13672 114.0156C 86.13672 111.8281 85.29688 109.9883 85.27344 109.9336C 85.25 109.875 85.50781 109.6523 85.84375 109.4336C 89.21875 107.25 89.08203 101.2305 85.62109 99.52734C 84.45313 98.95313 83.99609 98.89844 80.38281 98.89453L80.38281 98.89453L77.17969 98.89453L77.17969 108.5664zM91.6875 108.5664L91.6875 118.2383L102.0234 118.2383L102.0234 116.1523L93.96094 116.1523L93.96094 109.2305L100.8867 109.2305L100.8867 107.2383L93.96094 107.2383L93.96094 100.8867L101.832 100.8867L101.832 98.89453L91.6875 98.89453L91.6875 108.5664zM105.2461 108.5586L105.2461 118.2383L107.2148 118.2344C 112.9375 118.2305 115.0469 117.2266 116.293 113.9141C 116.9648 112.1328 117.1484 106.1992 116.5977 104.1641C 115.9805 101.8789 114.9063 100.4531 113.1797 99.60938C 111.9141 98.99219 111.6914 98.95703 108.3047 98.91797L108.3047 98.91797L105.2461 98.87891L105.2461 108.5586zM39.97656 101.1523C 41.86328 102.0039 41.96875 105.4414 40.15234 106.6836C 39.57813 107.0742 39.13672 107.1445 37.17578 107.1445L37.17578 107.1445L35.36719 107.1445L35.36719 100.8711L37.42969 100.9023C 39.34766 100.9297 39.52344 100.9453 39.97656 101.1523M83.45703 100.9922C 85.31641 101.3867 86.36719 103.5508 85.77344 105.7656C 85.22656 107.8242 84.08594 108.4219 80.83203 108.3555L80.83203 108.3555L79.50391 108.3281L79.48047 104.7266C 79.46484 102.7422 79.47656 101.0703 79.5 101.0039C 79.55859 100.8477 82.73438 100.8398 83.45703 100.9922M111.0508 101.0234C 112.7813 101.3906 113.7813 102.3906 114.3203 104.2969C 114.6094 105.332 114.5781 111.7305 114.2773 112.7656C 113.5391 115.3086 112.2344 116.1445 109.0156 116.1484L109.0156 116.1484L107.5234 116.1523L107.5234 100.8867L108.9688 100.8867C 109.8516 100.8867 110.6602 100.9414 111.0508 101.0234M40.06641 109.3359C 41.47266 109.8594 42.19141 111.8828 41.67969 113.8711C 41.20313 115.7344 40.41797 116.1523 37.39453 116.1523L37.39453 116.1523L35.36719 116.1523L35.36719 109.1328L37.44922 109.1328C 39.33594 109.1328 39.58203 109.1523 40.06641 109.3359M74.47656 123.6953C 71.45313 124.3594 69.53516 126.7461 68.91797 130.6094C 68.75391 131.6445 68.75781 137.4336 68.92188 138.4805C 69.60547 142.8047 71.69531 145.0664 75.36328 145.4414C 80.09766 145.9297 83.62891 142.9922 83.62891 138.5625L83.62891 138.5625L83.62891 138.1484L79.46094 138.1484L79.41797 138.3633C 79.39844 138.4766 79.33594 138.9297 79.27734 139.3594C 79.01563 141.4063 77.91016 142.2031 75.70703 141.9414C 73.50781 141.6758 73.06641 140.4258 73.07422 134.4492C 73.08203 128.3359 73.65234 127.0547 76.35938 127.0547C 78.46094 127.0547 79.16406 127.8281 79.41016 130.3945L79.41016 130.3945L79.47266 131.0391L83.73047 131.0391L83.68359 130.7266C 83.65625 130.5586 83.58594 130.1016 83.53125 129.7109C 83.10938 126.7188 81.30469 124.4844 78.74609 123.7813C 77.91797 123.5547 75.35938 123.5039 74.47656 123.6953M108.0898 123.6914C 104.8906 124.375 103.0625 126.6523 103.1836 129.8047C 103.293 132.6055 104.8516 134.3359 108.7852 136.0313C 111.7031 137.2891 112.2617 137.8477 112.2617 139.4961C 112.2617 141.3789 111.5078 142.1133 109.6797 142.0156C 107.8867 141.9219 107.0781 141.0781 106.8867 139.1211L106.8867 139.1211L106.832 138.5273L102.5664 138.5273L102.6289 139.2266C 103.0273 143.6172 107.2578 146.3711 111.9766 145.3086C 117.3555 144.0977 118.3359 137.2109 113.5781 134.0781C 112.8047 133.5664 112.4492 133.3945 110.3672 132.5039C 107.5742 131.3086 106.6445 129.5625 107.8945 127.8398C 109.2109 126.0195 112.0742 127.0742 112.3203 129.4688L112.3203 129.4688L112.3828 130.0898L116.6445 130.0898L116.582 129.4492C 116.1641 125.2422 112.4883 122.7539 108.0898 123.6914M32.71094 134.543L32.71094 145.2578L36.97656 145.2578L36.97656 135.9648L40.17969 135.9883L43.37891 136.0156L43.40234 140.6367L43.42969 145.2578L47.69141 145.2578L47.69141 123.832L43.42578 123.832L43.42578 132.457L36.97656 132.457L36.97656 123.832L32.71094 123.832L32.71094 134.543zM53.44141 134.4258C 51.62109 140.2539 50.11328 145.0781 50.08594 145.1406C 50.05078 145.2383 50.50781 145.2578 52.30469 145.2383L52.30469 145.2383L54.56641 145.2109L55.70703 140.8516L58.71484 140.8242C 60.37109 140.8125 61.72656 140.8164 61.72656 140.8359C 61.72656 140.8594 61.94141 141.7031 62.20703 142.7109C 62.47266 143.7227 62.72656 144.707 62.77734 144.9023L62.77734 144.9023L62.87109 145.2578L65.15234 145.2578C 67.18359 145.2578 67.42969 145.2422 67.37891 145.1094C 67.34766 145.0313 65.92969 140.5391 64.23047 135.1328C 62.53125 129.7227 61.03516 124.9688 60.90625 124.5664L60.90625 124.5664L60.67578 123.832L56.74609 123.832L53.44141 134.4258zM86.47266 134.543L86.47266 145.2578L90.73828 145.2578L90.73828 139.0273L91.57031 137.9766C 92.02344 137.3984 92.42188 136.9219 92.44531 136.9219C 92.47266 136.918 93.375 138.7813 94.45313 141.0625L94.45313 141.0625L96.41016 145.2109L98.94141 145.2383C 100.332 145.25 101.457 145.2266 101.4375 145.1836C 101.4219 145.1406 100.0352 142.4648 98.35547 139.2305C 96.67578 136.0039 95.28906 133.3164 95.27344 133.2617C 95.25781 133.2109 96.59766 131.0859 98.25391 128.543C 99.91016 126 101.2656 123.9023 101.2656 123.875C 101.2656 123.8477 100.1016 123.8398 98.68359 123.8516L98.68359 123.8516L96.10547 123.8789L94.46484 126.7695C 93.56641 128.3594 92.36719 130.4531 91.80859 131.4141L91.80859 131.4141L90.78906 133.1719L90.76172 128.5L90.73828 123.832L86.47266 123.832L86.47266 134.543zM59.73438 133.3125C 60.26172 135.3203 60.71094 137.0391 60.73828 137.1289C 60.78516 137.2852 60.64844 137.293 58.74609 137.293C 57.18359 137.293 56.69922 137.2656 56.69922 137.1758C 56.69922 137.0547 58.5625 129.8594 58.65625 129.6133C 58.73047 129.4297 58.63672 129.1172 59.73438 133.3125" stroke="none" fill="#FB1434" fill-rule="nonzero" />
	<g transform="matrix(1.333333 0 0 1.333333 0 0)">
	</g>
    <path transform="matrix(1.333333 0 0 1.333333 0 0)"  d="M107.9219 3.464844C 107.7539 3.804688 107.6172 4.113281 107.6211 4.148438C 107.625 4.1875 107.7773 3.925781 107.9609 3.570312C 108.1445 3.210938 108.2773 2.90625 108.2578 2.886719C 108.2383 2.867188 108.0859 3.128906 107.9219 3.464844M108.5742 2.890625C 108.5742 2.945312 108.7188 3.265625 108.8984 3.601562C 109.0742 3.941406 109.2188 4.175781 109.2188 4.125C 109.2188 4.074219 109.0742 3.753906 108.8984 3.414062C 108.7188 3.074219 108.5742 2.839844 108.5742 2.890625M107.0195 5.363281C 106.8281 5.75 106.6719 6.101562 106.6719 6.140625C 106.6758 6.179688 106.8516 5.875 107.0586 5.464844C 107.2695 5.054688 107.4258 4.707031 107.4063 4.6875C 107.3867 4.667969 107.2109 4.972656 107.0195 5.363281M109.4297 4.691406C 109.4297 4.746094 109.5938 5.109375 109.7969 5.5C 110 5.890625 110.168 6.167969 110.168 6.117188C 110.168 6.0625 110 5.699219 109.7969 5.308594C 109.5938 4.917969 109.4297 4.640625 109.4297 4.691406M106.1172 7.257812C 105.9531 7.597656 105.8164 7.90625 105.8203 7.941406C 105.8242 7.980469 105.9727 7.71875 106.1563 7.363281C 106.3438 7.003906 106.4766 6.695312 106.457 6.675781C 106.4375 6.660156 106.2852 6.921875 106.1172 7.257812M110.375 6.683594C 110.375 6.738281 110.5195 7.054688 110.6992 7.394531C 110.875 7.734375 111.0195 7.96875 111.0195 7.917969C 111.0195 7.863281 110.875 7.546875 110.6992 7.207031C 110.5195 6.867188 110.375 6.632812 110.375 6.683594M105.2656 9.058594C 105.0977 9.398438 104.9648 9.707031 104.9648 9.746094C 104.9688 9.78125 105.1211 9.523438 105.3047 9.164062C 105.4883 8.804688 105.6211 8.5 105.6055 8.480469C 105.5859 8.460938 105.4336 8.722656 105.2656 9.058594M111.2305 8.484375C 111.2305 8.539062 111.375 8.859375 111.5508 9.199219C 111.7305 9.535156 111.875 9.769531 111.875 9.71875C 111.875 9.667969 111.7305 9.347656 111.5508 9.007812C 111.375 8.667969 111.2305 8.433594 111.2305 8.484375M104.4141 10.86328C 104.2461 11.19922 104.1094 11.50781 104.1133 11.54688C 104.1172 11.58203 104.2695 11.32422 104.4531 10.96484C 104.6328 10.60938 104.7695 10.30078 104.75 10.28125C 104.7305 10.26172 104.5781 10.52344 104.4141 10.86328M112.082 10.28906C 112.082 10.33984 112.2266 10.66016 112.4063 11C 112.582 11.33594 112.7266 11.57031 112.7266 11.51953C 112.7266 11.46875 112.582 11.14844 112.4063 10.80859C 112.2266 10.46875 112.082 10.23438 112.082 10.28906M103.5586 12.66406C 103.3906 13 103.2578 13.30859 103.2617 13.34766C 103.2617 13.38672 103.4141 13.125 103.5977 12.76563C 103.7813 12.41016 103.9141 12.10156 103.8945 12.08203C 103.8789 12.0625 103.7266 12.32422 103.5586 12.66406M112.9375 12.08984C 112.9375 12.14063 113.082 12.46094 113.2578 12.80078C 113.4375 13.14063 113.582 13.375 113.582 13.32031C 113.582 13.26953 113.4375 12.94922 113.2578 12.60938C 113.082 12.27344 112.9375 12.03516 112.9375 12.08984M102.6563 14.55859C 102.4648 14.94922 102.3086 15.30078 102.3125 15.33984C 102.3164 15.375 102.4883 15.07422 102.6953 14.66406C 102.9063 14.25391 103.0625 13.90234 103.043 13.88281C 103.0234 13.86719 102.8516 14.16797 102.6563 14.55859M113.7891 13.89063C 113.7891 13.94141 113.957 14.30469 114.1602 14.69531C 114.3633 15.08594 114.5273 15.36328 114.5273 15.3125C 114.5273 15.26172 114.3633 14.89844 114.1602 14.50781C 113.957 14.11719 113.7891 13.83984 113.7891 13.89063M101.8047 16.35938C 101.6133 16.75 101.457 17.10156 101.457 17.14063C 101.4609 17.17578 101.6367 16.875 101.8438 16.46484C 102.0508 16.05469 102.207 15.70313 102.1914 15.6875C 102.1719 15.66797 101.9961 15.96875 101.8047 16.35938M114.6406 15.69141C 114.6406 15.74609 114.8086 16.10938 115.0117 16.49609C 115.2148 16.89063 115.3828 17.16797 115.3828 17.11328C 115.3828 17.0625 115.2148 16.69922 115.0117 16.30859C 114.8086 15.91797 114.6406 15.64063 114.6406 15.69141M100.9023 18.25781C 100.7383 18.59375 100.6016 18.90234 100.6055 18.94141C 100.6055 18.98047 100.7578 18.71875 100.9453 18.35938C 101.125 18.00391 101.2617 17.69531 101.2422 17.67578C 101.2227 17.65625 101.0703 17.91797 100.9023 18.25781M115.5898 17.68359C 115.5898 17.73438 115.7383 18.05469 115.9141 18.39453C 116.0898 18.73438 116.2383 18.96875 116.2383 18.91406C 116.2383 18.86328 116.0898 18.54297 115.9141 18.20703C 115.7383 17.86719 115.5898 17.62891 115.5898 17.68359M100.0508 20.05859C 99.88281 20.39844 99.75 20.70313 99.75391 20.74219C 99.75391 20.78125 99.90625 20.51953 100.0898 20.16406C 100.2734 19.80469 100.4063 19.49609 100.3906 19.47656C 100.3711 19.46094 100.2188 19.71875 100.0508 20.05859M116.4453 19.48438C 116.4453 19.53906 116.5898 19.85547 116.7656 20.19531C 116.9453 20.53516 117.0898 20.76953 117.0898 20.71875C 117.0898 20.66406 116.9453 20.34375 116.7656 20.00781C 116.5898 19.66797 116.4453 19.43359 116.4453 19.48438M104.168 25.94531L103.918 26.19531L103.9648 35.22656L103.9883 30.72656C 104.0156 26.26172 104.0195 26.22656 104.2227 26.00781C 104.5781 25.62891 105.1875 25.73047 105.3945 26.20703C 105.4766 26.39063 105.5234 26.4375 105.5273 26.33203C 105.5391 25.76172 104.6172 25.5 104.168 25.94531M107.918 25.89063C 107.8047 25.99609 107.7109 26.10938 107.7109 26.14453C 107.7109 26.17578 107.8086 26.10938 107.9297 25.99609C 108.3086 25.64453 108.8633 25.74609 109.1211 26.21875C 109.1758 26.32031 109.2266 26.35156 109.2266 26.28516C 109.2383 25.80078 108.3125 25.51953 107.918 25.89063M111.6172 25.89063C 111.5039 25.99609 111.4102 26.10938 111.4102 26.14453C 111.4102 26.17578 111.5078 26.10938 111.6289 25.99609C 112.0039 25.64453 112.5625 25.74609 112.8164 26.21875C 112.875 26.32031 112.9219 26.35156 112.9219 26.28516C 112.9336 25.80078 112.0117 25.51953 111.6172 25.89063M107.6602 30.71875C 107.6602 33.19922 107.6719 34.21094 107.6875 32.97266C 107.7031 31.73438 107.7031 29.70703 107.6875 28.46875C 107.6719 27.23047 107.6602 28.24219 107.6602 30.71875M111.3594 30.71875C 111.3594 33.19922 111.3711 34.21094 111.3867 32.97266C 111.4023 31.73438 111.4023 29.70703 111.3867 28.46875C 111.3711 27.23047 111.3594 28.24219 111.3594 30.71875M108.0703 38.94531C 108.293 38.96484 108.6328 38.96484 108.8281 38.94531C 109.0234 38.92188 108.8398 38.90625 108.4219 38.90625C 108.0078 38.90625 107.8477 38.92578 108.0703 38.94531M106.3359 39.43359C 105.625 39.83984 104.4023 41.28906 104.6016 41.48438C 104.6211 41.50391 104.7539 41.29297 104.8945 41.01953C 105.2227 40.39844 105.8008 39.82422 106.4805 39.44922C 106.7656 39.29297 106.957 39.16406 106.9063 39.16016C 106.8516 39.16016 106.5977 39.28125 106.3359 39.43359M110.3672 39.44922C 111.043 39.82422 111.625 40.39844 111.9492 41.01953C 112.0938 41.29297 112.2266 41.50391 112.2422 41.48438C 112.5313 41.19922 110.5078 39.15625 109.9414 39.16016C 109.8867 39.16406 110.0781 39.29297 110.3672 39.44922M104.332 43C 104.332 43.41797 104.3477 43.57422 104.3672 43.35156C 104.3867 43.12891 104.3867 42.78906 104.3672 42.59375C 104.3477 42.39844 104.3281 42.58203 104.332 43M112.4844 43C 112.4844 43.41797 112.5039 43.57422 112.5234 43.35156C 112.543 43.12891 112.543 42.78906 112.5234 42.59375C 112.5 42.39844 112.4844 42.58203 112.4844 43M104.5859 44.51563C 104.582 45.08594 106.6211 47.10547 106.9102 46.82031C 106.9258 46.80078 106.7188 46.67188 106.4453 46.52734C 105.8203 46.19922 105.2461 45.62109 104.875 44.94141C 104.7148 44.65625 104.5859 44.46484 104.5859 44.51563M111.9492 44.98047C 111.625 45.60156 111.043 46.17578 110.3672 46.55078C 110.0781 46.70703 109.8867 46.83594 109.9414 46.83594C 110.5078 46.84375 112.5313 44.80078 112.2422 44.51172C 112.2266 44.49609 112.0938 44.70703 111.9492 44.98047M108.0703 47.09766C 108.293 47.11719 108.6328 47.11719 108.8281 47.09766C 109.0234 47.07813 108.8398 47.0625 108.4219 47.0625C 108.0078 47.0625 107.8477 47.07813 108.0703 47.09766M60.28125 98.58594C 60.55469 98.60156 61 98.60156 61.27344 98.58594C 61.54688 98.56641 61.32422 98.55078 60.77734 98.55078C 60.23047 98.55078 60.00781 98.56641 60.28125 98.58594M63.10156 98.93359C 63.46484 99.05859 63.77734 99.14844 63.79688 99.13281C 63.84375 99.08594 62.77734 98.70313 62.59766 98.70703C 62.51172 98.70703 62.73438 98.8125 63.10156 98.93359M38.85156 98.86719C 39.01953 98.88672 39.29688 98.88672 39.46875 98.86719C 39.63672 98.84766 39.5 98.82813 39.16016 98.82813C 38.82031 98.82813 38.68359 98.84766 38.85156 98.86719M82.94141 98.86719C 83.11328 98.88672 83.36719 98.88672 83.51172 98.86719C 83.65234 98.84375 83.51563 98.82813 83.20313 98.82813C 82.88672 98.82813 82.77344 98.84766 82.94141 98.86719M110.1563 98.86719C 110.3242 98.88672 110.582 98.88672 110.7227 98.86719C 110.8672 98.84375 110.7266 98.82813 110.4141 98.82813C 110.1016 98.82813 109.9844 98.84766 110.1563 98.86719M57.54688 99.19531C 56.58984 99.66797 54.72266 101.7852 55.01172 102.0703C 55.02734 102.0898 55.19141 101.8203 55.37109 101.4727C 55.82813 100.5781 56.74609 99.67969 57.64844 99.24219C 58.03906 99.05078 58.3125 98.89453 58.25781 98.89453C 58.19922 98.89453 57.87891 99.02734 57.54688 99.19531M41.55469 99.46875C 42.08594 99.74609 42.75 100.3164 43.07813 100.7891C 43.22656 101.0039 43.22656 100.9922 43.07422 100.707C 42.78906 100.1719 41.46484 99.16016 41.08203 99.18359C 41.04297 99.18359 41.25391 99.3125 41.55469 99.46875M63.90625 99.21094C 63.90625 99.23438 64.09375 99.36328 64.32422 99.5C 64.55078 99.63281 65.00781 100.0313 65.33594 100.3867C 65.66406 100.7383 65.82813 100.8789 65.70313 100.6953C 65.28906 100.1016 63.90625 98.95703 63.90625 99.21094M85.83203 99.57422C 86.33594 99.84766 87.04688 100.5078 87.44922 101.0742L87.44922 101.0742L87.61719 101.3125L87.50391 101.0781C 87.22656 100.4961 85.78125 99.26953 85.38281 99.27734C 85.33203 99.27734 85.53125 99.41016 85.83203 99.57422M113.5898 99.75781C 114.3672 100.2188 115.3945 101.2891 115.8516 102.1172C 116.0664 102.5078 116.2422 102.7891 116.2461 102.7422C 116.2539 102.0625 114.1484 99.79297 113.2422 99.5C 113.1484 99.47266 113.3047 99.58594 113.5898 99.75781M36.29297 100.957C 36.77344 100.9727 37.5625 100.9727 38.04297 100.957C 38.52734 100.9375 38.13281 100.9258 37.16797 100.9258C 36.20313 100.9258 35.80859 100.9375 36.29297 100.957M62.53125 101.0898C 62.73828 101.1953 63.05859 101.418 63.24219 101.582L63.24219 101.582L63.57422 101.8789L63.28906 101.5625C 63.03125 101.2734 62.40625 100.8789 62.22656 100.8906C 62.1875 100.8906 62.32422 100.9805 62.53125 101.0898M80.33594 100.957C 80.78906 100.9727 81.53516 100.9727 81.99219 100.957C 82.44922 100.9375 82.07422 100.9258 81.16406 100.9258C 80.25 100.9258 79.87891 100.9375 80.33594 100.957M96.03125 100.957C 97.14453 100.9727 98.93359 100.9727 100.0156 100.957C 101.0938 100.9414 100.1836 100.9297 97.99219 100.9297C 95.80469 100.9297 94.92188 100.9414 96.03125 100.957M108.3086 100.957C 108.7148 100.9727 109.3555 100.9727 109.7305 100.957C 110.1055 100.9375 109.7734 100.9219 108.9922 100.9219C 108.2109 100.9219 107.9023 100.9375 108.3086 100.957M58.53516 101.25C 57.88672 101.7227 57.0625 102.9648 57.08594 103.4453C 57.08984 103.5234 57.14844 103.4336 57.21875 103.25C 57.57031 102.2891 58.02734 101.6641 58.68359 101.25C 58.91797 101.1016 59.0625 100.9805 59.00781 100.9805C 58.95313 100.9805 58.74219 101.1016 58.53516 101.25M66.05859 101.4063C 66.14453 101.5859 66.23438 101.7188 66.25391 101.6992C 66.29688 101.6563 66.00781 101.0742 65.94531 101.0742C 65.92188 101.0742 65.97266 101.2227 66.05859 101.4063M40.26172 101.4141C 40.46875 101.5508 40.72266 101.7852 40.82031 101.9336C 40.92188 102.082 41.01953 102.1836 41.03906 102.1641C 41.15234 102.0547 40.20703 101.168 39.97656 101.168C 39.92188 101.168 40.05078 101.2813 40.26172 101.4141M84.30859 101.4102C 84.55469 101.5391 84.87109 101.8008 85.01563 101.9961C 85.37109 102.4805 85.50391 102.6055 85.29297 102.2617C 84.96484 101.7148 84.26563 101.1563 83.94141 101.1719C 83.89844 101.1758 84.06641 101.2813 84.30859 101.4102M111.7969 101.3008C 111.8945 101.3867 112.4531 101.6445 112.4531 101.6016C 112.4531 101.5469 111.9258 101.2656 111.8242 101.2656C 111.7891 101.2656 111.7773 101.2813 111.7969 101.3008M43.44141 101.5C 43.44141 101.5547 43.49609 101.7461 43.57031 101.9297C 43.63672 102.1094 43.69531 102.1953 43.69922 102.1172C 43.69922 102.0391 43.64453 101.8477 43.57031 101.6914C 43.5 101.5352 43.44141 101.4492 43.44141 101.5M112.8086 101.8906C 112.9805 102.043 113.2305 102.293 113.3672 102.4492L113.3672 102.4492L113.6133 102.7344L113.3828 102.4102C 113.2539 102.2305 113.0039 101.9805 112.8242 101.8516L112.8242 101.8516L112.5 101.6172L112.8086 101.8906L107.9219 3.464844zM87.81641 101.7852C 87.81641 101.8359 87.87109 102.0313 87.94141 102.2109C 88.01172 102.3945 88.07031 102.4805 88.07422 102.4023C 88.07422 102.3242 88.01953 102.1328 87.94531 101.9766C 87.875 101.8203 87.81641 101.7344 87.81641 101.7852M63.74609 102.3008C 63.85938 102.5039 63.96484 102.6602 63.98438 102.6406C 64.02734 102.5938 63.73438 102.0469 63.62891 101.9805C 63.58203 101.9492 63.63281 102.0938 63.74609 102.3008M54.81641 102.5078C 54.75781 102.6719 54.71094 102.8555 54.71484 102.9141C 54.71875 102.9727 54.78516 102.8516 54.85938 102.6484C 54.93359 102.4414 54.98047 102.2617 54.95703 102.2383C 54.9375 102.2188 54.875 102.3398 54.81641 102.5078M113.75 103.1133C 113.8359 103.293 113.9258 103.4258 113.9453 103.4063C 113.9883 103.3633 113.7031 102.7813 113.6367 102.7813C 113.6133 102.7813 113.6641 102.9297 113.75 103.1133M116.2617 102.9219C 116.2578 102.9766 116.3164 103.168 116.3867 103.3516C 116.457 103.5313 116.5156 103.6172 116.5195 103.5391C 116.5195 103.4609 116.4648 103.2695 116.3906 103.1133C 116.3203 102.957 116.2617 102.8711 116.2617 102.9219M43.83984 103.8711C 43.83984 104.3945 43.85547 104.5938 43.875 104.3203C 43.89453 104.043 43.89453 103.6172 43.875 103.3711C 43.85547 103.125 43.83984 103.3516 43.83984 103.8711M41.36719 103.918C 41.36719 104.207 41.38672 104.3242 41.40625 104.1797C 41.42969 104.0352 41.42969 103.8008 41.40625 103.6602C 41.38672 103.5156 41.36719 103.6328 41.36719 103.918M113.9844 103.5859C 113.9844 103.6406 114.043 103.832 114.1094 104.0156C 114.1836 104.1953 114.2422 104.2813 114.2422 104.2031C 114.2422 104.125 114.1875 103.9336 114.1133 103.7773C 114.043 103.6211 113.9844 103.5352 113.9844 103.5859M88.30859 104.582C 88.30859 105.0781 88.32422 105.2813 88.34375 105.0313C 88.36328 104.7852 88.36328 104.3789 88.34375 104.1328C 88.32422 103.8867 88.30859 104.0859 88.30859 104.582M85.83594 104.6289C 85.83594 104.8906 85.85547 104.9883 85.87891 104.8398C 85.89844 104.6992 85.89844 104.4844 85.875 104.3672C 85.85547 104.25 85.83594 104.3711 85.83594 104.6289M66.84766 104.3984C 66.84766 104.4648 66.43359 104.4883 65.61328 104.4688C 64.93359 104.4531 64.37891 104.4727 64.37891 104.5117C 64.37891 104.5508 64.95703 104.582 65.66016 104.582C 66.73438 104.582 66.94141 104.5586 66.94141 104.4414C 66.94141 104.3633 66.91797 104.2969 66.89453 104.2969C 66.86719 104.2969 66.84766 104.3438 66.84766 104.3984M54.35156 104.7734C 54.35156 104.9531 54.37109 105.0313 54.39453 104.9375C 54.41797 104.8477 54.41797 104.6992 54.39453 104.6055C 54.37109 104.5156 54.35156 104.5898 54.35156 104.7734M56.81641 104.8672C 56.81641 105.0508 56.83594 105.125 56.85938 105.0313C 56.88281 104.9414 56.88281 104.793 56.85938 104.7031C 56.83594 104.6094 56.81641 104.6836 56.81641 104.8672M116.8398 105.293C 116.8398 105.5 116.8594 105.5781 116.8789 105.457C 116.9023 105.3398 116.9023 105.1719 116.8789 105.0781C 116.8555 104.9883 116.8359 105.0859 116.8398 105.293M41.02734 105.4766C 40.8125 106 40.28906 106.543 39.78125 106.7734C 39.57031 106.8711 39.46484 106.9492 39.54688 106.9492C 39.76172 106.9531 40.50391 106.4414 40.73438 106.1289C 41.00781 105.7617 41.26172 105.25 41.22656 105.1484C 41.21094 105.0977 41.12109 105.2461 41.02734 105.4766M54.27734 108.4688C 54.27734 110.2188 54.28906 110.9336 54.30469 110.0586C 54.32031 109.1836 54.32031 107.7539 54.30469 106.8828C 54.28906 106.0078 54.27734 106.7227 54.27734 108.4688M43.29688 106.1484C 43.05078 106.6172 42.38672 107.332 41.8125 107.7422C 41.58984 107.9023 41.59375 107.9023 41.89063 107.7383C 42.48438 107.4219 43.77734 105.8516 43.59766 105.6719C 43.57813 105.6523 43.44141 105.8672 43.29688 106.1484M56.74219 108.4688C 56.74219 110.0625 56.75391 110.7109 56.76953 109.9141C 56.78516 109.1211 56.78516 107.8203 56.76953 107.0234C 56.75391 106.2305 56.74219 106.8789 56.74219 108.4688M114.4844 108.5156C 114.4844 110.1328 114.5 110.8086 114.5156 110.0156C 114.5313 109.2266 114.5313 107.9023 114.5156 107.0781C 114.5 106.2539 114.4844 106.9023 114.4844 108.5156M116.9492 108.5664C 116.9492 110.0508 116.9648 110.6602 116.9805 109.9141C 116.9961 109.1719 116.9961 107.957 116.9805 107.2148C 116.9648 106.4727 116.9492 107.0781 116.9492 108.5664M85.28516 106.7305C 85.03125 107.2031 84.35938 107.7695 83.78516 107.9883C 83.51563 108.0898 83.35938 108.1758 83.4375 108.1797C 84.01563 108.1914 85.77734 106.6992 85.50781 106.4297C 85.48438 106.4102 85.38672 106.543 85.28516 106.7305M36.29297 107.1172C 36.77344 107.1367 37.5625 107.1367 38.04297 107.1172C 38.52734 107.1016 38.13281 107.0859 37.16797 107.0859C 36.20313 107.0859 35.80859 107.1016 36.29297 107.1172M87.66797 107.4922C 87.27344 108.3203 86.39844 109.2109 85.55078 109.6445C 85.26953 109.7852 85.25391 109.8203 85.35156 110.0352C 85.41016 110.168 85.47656 110.2539 85.5 110.2344C 85.52344 110.2109 85.49609 110.1055 85.4375 110C 85.35156 109.8438 85.36719 109.8008 85.52344 109.75C 86.25391 109.5195 88.14063 107.4531 87.87109 107.1836C 87.85156 107.1641 87.76172 107.3008 87.66797 107.4922M100.8867 108.1836L100.8867 109.2266L97.44922 109.2539L94.01172 109.2773L100.9805 109.3242L100.9805 108.2344C 100.9805 107.6328 100.957 107.1445 100.9336 107.1445C 100.9063 107.1445 100.8867 107.6094 100.8867 108.1836M41.43359 107.9883C 41.43359 108.0273 41.66016 108.1563 41.92969 108.2813C 42.55469 108.5625 43.19531 109.2031 43.58984 109.9414C 43.75781 110.2539 43.89453 110.4648 43.89844 110.4102C 43.90234 110.1953 43.21484 109.1641 42.82422 108.8008C 42.42578 108.4336 41.43359 107.8555 41.43359 107.9883M82.75391 108.2539C 82.87109 108.2773 83.03906 108.2734 83.13281 108.25C 83.22266 108.2266 83.125 108.207 82.91797 108.2109C 82.70703 108.2109 82.63281 108.2305 82.75391 108.2539M66.86719 112.2031L66.84766 115.8867L66.11328 116.6172C 65.69922 117.0234 65.125 117.4766 64.80859 117.6445C 64.49609 117.8125 64.28516 117.9492 64.33984 117.9492C 64.69531 117.957 66.17188 116.8086 66.71094 116.1016L66.71094 116.1016L66.94141 115.7969L66.91797 112.1563L66.89063 108.5156L66.86719 112.2031zM36.4375 109.207C 37.00391 109.2227 37.89844 109.2227 38.42969 109.2031C 38.96094 109.1875 38.5 109.1758 37.40625 109.1758C 36.30859 109.1758 35.875 109.1875 36.4375 109.207M40.4375 109.5742C 40.49219 109.6211 40.68359 109.7852 40.86719 109.9414L40.86719 109.9414L41.19922 110.2266L40.96094 109.9531C 40.83203 109.8086 40.63672 109.6406 40.53516 109.5859C 40.42969 109.5352 40.38672 109.5273 40.4375 109.5742M41.3125 110.6016C 41.39844 110.7852 41.48438 110.918 41.50781 110.8945C 41.55078 110.8516 41.26172 110.2734 41.19922 110.2734C 41.17188 110.2734 41.22656 110.4219 41.3125 110.6016M81.22656 110.4375C 82.87109 110.4648 82.95703 110.4727 83.01563 110.6602C 83.04688 110.7656 83.09766 110.832 83.12109 110.8086C 83.14844 110.7852 83.12109 110.6719 83.0625 110.5664C 82.96094 110.375 82.89453 110.3672 81.23047 110.3867L81.23047 110.3867L79.50391 110.4102L81.22656 110.4375zM85.62891 110.6055C 85.62891 110.6563 85.71094 110.8477 85.80859 111.0313C 85.91016 111.2109 85.99219 111.3203 85.99219 111.2656C 85.99219 111.2148 85.91016 111.0234 85.80859 110.8398C 85.71094 110.6563 85.62891 110.5508 85.62891 110.6055M64.40234 112.8438L64.37891 115.0859L64.01563 115.4063C 63.81641 115.582 63.57031 115.7773 63.47266 115.8438C 63.37109 115.9102 63.41797 115.9023 63.57422 115.8281C 63.73047 115.7539 64 115.5469 64.16797 115.3711L64.16797 115.3711L64.48047 115.0469L64.45313 112.8242L64.42578 110.6055L64.40234 112.8438zM83.25391 111.1719C 83.25391 111.2266 83.31641 111.375 83.39063 111.5039C 83.46484 111.6367 83.52734 111.6992 83.52734 111.6445C 83.52734 111.5938 83.46484 111.4453 83.39063 111.3125C 83.31641 111.1836 83.25391 111.1211 83.25391 111.1719M116.8359 111.7891C 116.8359 111.9727 116.8555 112.0469 116.8789 111.957C 116.9023 111.8633 116.9023 111.7148 116.8789 111.625C 116.8555 111.5313 116.8359 111.6055 116.8359 111.7891M56.81641 111.8828C 56.81641 112.0664 56.83594 112.1406 56.85938 112.0508C 56.88281 111.957 56.88281 111.8086 56.85938 111.7188C 56.83594 111.625 56.81641 111.7031 56.81641 111.8828M86.10156 111.6445C 86.10156 111.6992 86.18359 111.8906 86.28125 112.0742C 86.38281 112.2578 86.46484 112.3633 86.46484 112.3086C 86.46484 112.2578 86.38281 112.0664 86.28125 111.8828C 86.18359 111.7031 86.10156 111.5938 86.10156 111.6445M44.21875 112.6406C 44.21875 113.1914 44.23438 113.4141 44.25391 113.1406C 44.27344 112.8672 44.27344 112.418 44.25391 112.1445C 44.23438 111.8711 44.21875 112.0938 44.21875 112.6406M83.54297 111.8359C 83.54297 111.8906 83.625 112.0781 83.72266 112.2617C 83.82422 112.4453 83.90625 112.5508 83.90625 112.5C 83.90625 112.4492 83.82422 112.2578 83.72266 112.0742C 83.625 111.8906 83.54297 111.7852 83.54297 111.8359M41.75 112.5938C 41.75391 113.0117 41.76953 113.1719 41.78906 112.9492C 41.80859 112.7266 41.80859 112.3828 41.78906 112.1914C 41.76563 111.9961 41.75 112.1758 41.75 112.5938M54.35156 112.168C 54.35156 112.3516 54.37109 112.4258 54.39453 112.3359C 54.41797 112.2422 54.41797 112.0938 54.39453 112.0039C 54.37109 111.9102 54.35156 111.9844 54.35156 112.168M83.91797 112.6914C 83.91797 112.7422 83.98047 112.8906 84.05469 113.0234C 84.12891 113.1523 84.19141 113.2148 84.19141 113.1641C 84.19141 113.1094 84.12891 112.9609 84.05469 112.832C 83.98047 112.7031 83.91797 112.6367 83.91797 112.6914M86.57422 112.6914C 86.57422 112.7422 86.67969 112.9766 86.80469 113.2109C 86.92969 113.4453 87.03516 113.5938 87.03516 113.543C 87.03516 113.4922 86.92969 113.2578 86.80469 113.0234C 86.67969 112.7891 86.57422 112.6367 86.57422 112.6914M57 112.9258C 57 113.0039 57.03516 113.1563 57.07813 113.2578C 57.13281 113.3789 57.16016 113.3945 57.16016 113.3047C 57.16016 113.2266 57.125 113.0781 57.07813 112.9727C 57.02734 112.8555 57 112.8359 57 112.9258M54.62109 113.5508C 54.60938 113.6914 54.91406 114.5547 54.95703 114.5117C 54.97656 114.4922 54.91016 114.2461 54.80859 113.9609C 54.71094 113.6797 54.625 113.4922 54.62109 113.5508M84.29688 113.543C 84.29688 113.5938 84.35938 113.7461 84.43359 113.875C 84.50781 114.0039 84.57031 114.0703 84.57031 114.0156C 84.57031 113.9648 84.50781 113.8164 84.43359 113.6875C 84.35938 113.5547 84.29688 113.4922 84.29688 113.543M87.05078 113.7344C 87.05078 113.7852 87.15234 114.0195 87.27734 114.2539C 87.40234 114.4883 87.50781 114.6367 87.50781 114.5859C 87.50781 114.5352 87.40234 114.3008 87.27734 114.0625C 87.15234 113.8281 87.05078 113.6797 87.05078 113.7344M113.5586 114.1836C 113.2578 114.6914 112.7188 115.2148 112.168 115.5273C 111.9336 115.6602 111.7852 115.7695 111.8438 115.7695C 112.2031 115.7734 113.4102 114.6875 113.7266 114.0742C 113.9492 113.6406 113.8359 113.7148 113.5586 114.1836M115.9805 114.6484C 115.6797 115.2695 115.3945 115.6875 114.8906 116.2227C 114.4141 116.7305 114.332 116.8438 114.625 116.6016C 115.3008 116.0313 116.6172 114.0117 116.4219 113.8359C 116.4023 113.8164 116.2031 114.1836 115.9805 114.6484M57.36328 114.0313C 57.35938 114.5508 59.01172 116.1758 59.51563 116.1445C 59.55859 116.1445 59.39844 116.0391 59.16016 115.918C 58.61328 115.6328 57.98828 115.0078 57.64063 114.3984C 57.48828 114.1367 57.36719 113.9688 57.36328 114.0313M84.58594 114.207C 84.58594 114.2578 84.66797 114.4531 84.76563 114.6328C 84.86719 114.8164 84.94531 114.9219 84.94531 114.8711C 84.94531 114.8203 84.86719 114.625 84.76563 114.4414C 84.66797 114.2617 84.58594 114.1563 84.58594 114.207M41.25 114.6875C 41.04297 115.082 40.69141 115.4492 40.24219 115.75C 40.14063 115.8125 40.19141 115.8047 40.35547 115.7305C 40.78516 115.5273 41.65625 114.4453 41.51172 114.2969C 41.49219 114.2813 41.375 114.457 41.25 114.6875M54.99609 114.6602C 54.98047 115.3633 56.67969 117.2656 57.85938 117.8672C 58.41797 118.1523 58.41016 118.0703 57.85156 117.7617C 56.75391 117.1602 55.96094 116.3594 55.35156 115.2344C 55.15625 114.8789 54.99609 114.6211 54.99609 114.6602M87.52344 114.7734C 87.52344 114.8281 87.62891 115.0625 87.75391 115.2969C 87.87891 115.5313 87.98047 115.6797 87.98047 115.6289C 87.98047 115.5781 87.87891 115.3398 87.75391 115.1055C 87.62891 114.8711 87.52344 114.7227 87.52344 114.7734M84.96094 115.0586C 84.96094 115.1133 85.02344 115.2617 85.09766 115.3906C 85.17188 115.5234 85.23438 115.5859 85.23438 115.5352C 85.23438 115.4805 85.17188 115.332 85.09766 115.2031C 85.02344 115.0703 84.96094 115.0078 84.96094 115.0586M85.25 115.7227C 85.25 115.7773 85.32813 115.9688 85.42969 116.1523C 85.53125 116.332 85.60938 116.4414 85.60938 116.3867C 85.60938 116.3359 85.53125 116.1445 85.42969 115.9609C 85.32813 115.7773 85.25 115.6719 85.25 115.7227M88 115.8203C 88 115.8711 88.10156 116.1055 88.22656 116.3398C 88.35156 116.5742 88.45313 116.7227 88.45313 116.6719C 88.45313 116.6211 88.35156 116.3867 88.22656 116.1523C 88.10156 115.918 88 115.7656 88 115.8203M43.24219 116.1875C 43 116.5781 42.31641 117.2188 41.91797 117.4258C 41.75781 117.5078 41.625 117.5977 41.625 117.625C 41.625 117.8867 43.05859 116.6758 43.35938 116.1602C 43.59375 115.7617 43.49219 115.7852 43.24219 116.1875M36.43359 116.125C 36.99609 116.1445 37.91016 116.1445 38.47266 116.125C 39.03125 116.1094 38.57422 116.0977 37.45313 116.0977C 36.33203 116.0977 35.87109 116.1094 36.43359 116.125M98.01563 116.125L102.0156 116.1523L102.0781 118.2852L102.0977 117.1719L102.1172 116.0547L98.0625 116.0781L94.01172 116.1016L98.01563 116.125zM108.3047 116.125C 108.707 116.1445 109.3711 116.1445 109.7734 116.125C 110.1797 116.1094 109.8477 116.0938 109.0391 116.0938C 108.2305 116.0938 107.9023 116.1094 108.3047 116.125M60.75391 116.4102C 60.97656 116.4297 61.33984 116.4297 61.55859 116.4102C 61.78125 116.3906 61.60156 116.375 61.15625 116.375C 60.71484 116.375 60.53125 116.3906 60.75391 116.4102M85.62891 116.5781C 85.62891 116.6289 85.71094 116.8203 85.80859 117.0039C 85.91016 117.1875 85.99219 117.293 85.99219 117.2422C 85.99219 117.1875 85.91016 116.9961 85.80859 116.8125C 85.71094 116.6328 85.62891 116.5234 85.62891 116.5781M113.5898 117.25C 113.3047 117.4258 113.1055 117.5703 113.1484 117.5703C 113.2578 117.5742 114.0547 117.0977 114.1172 116.9961C 114.1914 116.875 114.1797 116.8828 113.5898 117.25M88.56641 117.0508C 88.56641 117.1055 88.64844 117.2969 88.74609 117.4766C 88.84766 117.6602 88.92969 117.7695 88.92969 117.7148C 88.92969 117.6641 88.84766 117.4688 88.74609 117.2891C 88.64844 117.1055 88.56641 117 88.56641 117.0508M86.00391 117.4297C 86.00391 117.4844 86.06641 117.6328 86.14063 117.7617C 86.21484 117.8906 86.27734 117.957 86.27734 117.9063C 86.27734 117.8516 86.21484 117.7031 86.14063 117.5742C 86.06641 117.4414 86.00391 117.3789 86.00391 117.4297M41.10156 117.8125C 40.94531 117.8828 40.88281 117.9453 40.96094 117.9453C 41.03906 117.9453 41.21094 117.8828 41.33984 117.8086C 41.64063 117.6367 41.48047 117.6406 41.10156 117.8125M63.71875 118.0938C 63.53516 118.1641 63.44922 118.2227 63.52734 118.2227C 63.60547 118.2266 63.79688 118.168 63.95313 118.0977C 64.32031 117.9297 64.14844 117.9297 63.71875 118.0938M39.5625 118.207C 39.65234 118.2305 39.80078 118.2305 39.89453 118.207C 39.98438 118.1836 39.91016 118.1641 39.72656 118.1641C 39.54688 118.1641 39.46875 118.1836 39.5625 118.207M110.4844 118.207C 110.5781 118.2305 110.7266 118.2305 110.8164 118.207C 110.9063 118.1836 110.832 118.1641 110.6523 118.1641C 110.4688 118.1641 110.3945 118.1836 110.4844 118.207M60.14063 118.4961C 60.28125 118.5156 60.49609 118.5156 60.61328 118.4922C 60.73047 118.4688 60.61328 118.4531 60.35156 118.4531C 60.08984 118.4531 59.99609 118.4727 60.14063 118.4961M61.65625 118.4961C 61.79688 118.5156 62.03125 118.5156 62.17578 118.4961C 62.32031 118.4727 62.20313 118.4531 61.91406 118.4531C 61.62891 118.4531 61.51172 118.4727 61.65625 118.4961M75.26172 123.5195C 75.37891 123.543 75.57031 123.543 75.6875 123.5195C 75.80469 123.4961 75.70703 123.4766 75.47266 123.4766C 75.23828 123.4766 75.14453 123.4961 75.26172 123.5195M77.0625 123.5195C 77.17969 123.543 77.37109 123.543 77.48828 123.5195C 77.60547 123.4961 77.50781 123.4766 77.27344 123.4766C 77.03906 123.4766 76.94531 123.4961 77.0625 123.5195M108.8281 123.5195C 108.9453 123.543 109.1172 123.5391 109.207 123.5156C 109.2969 123.4922 109.1992 123.4727 108.9922 123.4766C 108.7813 123.4766 108.707 123.4961 108.8281 123.5195M110.5313 123.5195C 110.6484 123.543 110.8398 123.543 110.9609 123.5195C 111.0781 123.4961 110.9805 123.4766 110.7461 123.4766C 110.5117 123.4766 110.4141 123.4961 110.5313 123.5195M78.60156 123.7344C 78.92578 123.8398 79.17578 123.8398 78.93359 123.7344C 78.83203 123.6914 78.66016 123.6563 78.55469 123.6563C 78.40234 123.6602 78.41406 123.6758 78.60156 123.7344M107.4766 123.7344C 107.2344 123.8398 107.4844 123.8398 107.8086 123.7344C 107.9961 123.6758 108.0078 123.6602 107.8555 123.6563C 107.75 123.6563 107.5781 123.6914 107.4766 123.7344M37 128.0742L36.97656 132.457L43.42578 132.457L43.40234 128.0742L43.38281 123.6875L43.35547 128.0273L43.32813 132.3633L37.07422 132.3633L37.05078 128.0273L37.02344 123.6875L37 128.0742zM47.73828 134.4961C 47.73828 140.4414 47.75 142.8867 47.76563 139.9336C 47.77734 136.9766 47.77734 132.1133 47.76563 129.125C 47.75 126.1328 47.73828 128.5508 47.73828 134.4961M73.53125 123.875C 73.16406 124.043 73.33594 124.043 73.76563 123.8789C 73.94922 123.8086 74.03516 123.75 73.95703 123.7461C 73.87891 123.7461 73.6875 123.8047 73.53125 123.875M90.76172 128.4297C 90.74219 133.0508 90.74609 133.1641 90.91406 132.8867C 91.375 132.1211 91.60547 131.6992 91.5625 131.6992C 91.53516 131.6992 91.37109 131.9453 91.19531 132.2461L91.19531 132.2461L90.88281 132.7891L90.83203 128.2383L90.78516 123.6875L90.76172 128.4297zM101.2695 123.9531C 101.1992 124.0703 101.0781 124.2578 101.0039 124.375C 100.9258 124.4922 100.8828 124.5898 100.9102 124.5898C 100.9766 124.5898 101.4766 123.8203 101.4336 123.7813C 101.4141 123.7617 101.3398 123.8398 101.2695 123.9531M79.64453 124.0664C 79.77734 124.1406 79.92578 124.2031 79.97656 124.2031C 80.03125 124.2031 79.96484 124.1406 79.83594 124.0664C 79.70313 123.9922 79.55469 123.9336 79.50391 123.9336C 79.45313 123.9336 79.51563 123.9922 79.64453 124.0664M106.2656 124.2148C 105.9648 124.3711 105.7188 124.5195 105.7188 124.543C 105.7188 124.5859 106.8477 124.0508 106.9453 123.9609C 107.0703 123.8477 106.7383 123.9727 106.2656 124.2148M113.3555 124.2813C 113.9844 124.6133 115.2109 125.707 115.6133 126.2969C 115.7227 126.457 115.7461 126.4688 115.6836 126.332C 115.3203 125.5625 113.3203 123.9102 112.7695 123.9297C 112.7266 123.9297 112.9883 124.0898 113.3555 124.2813M72.55859 124.3086C 72.28516 124.4648 72.0625 124.6133 72.0625 124.6406C 72.0625 124.6758 73.04688 124.1641 73.19141 124.0508C 73.37109 123.9102 72.95703 124.0781 72.55859 124.3086M56.42578 124.5039C 56.35938 124.7148 56.32422 124.9102 56.34766 124.9297C 56.36719 124.9531 56.4375 124.793 56.5 124.582C 56.56641 124.3672 56.60156 124.1758 56.57813 124.1523C 56.55859 124.1328 56.48828 124.2891 56.42578 124.5039M80.16797 124.2695C 80.21875 124.3164 80.51563 124.5273 80.82031 124.7344C 81.42188 125.1328 82.18359 125.9805 82.49219 126.5859C 82.59766 126.793 82.70703 126.9609 82.73438 126.9609C 83.13281 126.9609 81.24219 124.8047 80.5 124.4102C 80.26563 124.2852 80.11719 124.2227 80.16797 124.2695M95.23828 125.1797C 94.9375 125.7148 94.67578 126.1875 94.65625 126.2266C 94.63281 126.2656 94.63672 126.2969 94.66016 126.2969C 94.69141 126.2969 95.30469 125.2461 95.83203 124.2813C 95.85156 124.2422 95.85156 124.2109 95.82813 124.2109C 95.80469 124.2109 95.53906 124.6484 95.23828 125.1797M105.0938 124.957C 104.6602 125.3008 104.1445 125.875 103.9727 126.1992C 103.9336 126.2813 104.0195 126.1953 104.168 126.0117C 104.5117 125.582 104.8242 125.2773 105.293 124.8945C 105.5 124.7266 105.6445 124.5898 105.6133 124.5898C 105.582 124.5898 105.3477 124.7539 105.0938 124.957M71.12109 125.4219C 70.72656 125.8281 70.32422 126.2969 70.23047 126.4648C 69.96875 126.9336 70.09375 126.8281 70.49609 126.2422C 70.69531 125.9531 71.12109 125.4805 71.4375 125.1992C 71.75391 124.9141 71.97656 124.6836 71.92969 124.6836C 71.88281 124.6836 71.51953 125.0156 71.12109 125.4219M100.3945 125.3242C 99.80469 126.2109 99.60156 126.5508 99.71875 126.4375C 99.89453 126.2656 100.9258 124.6836 100.8555 124.6836C 100.8359 124.6836 100.625 124.9727 100.3945 125.3242M61.17188 125.2539C 61.17188 125.332 61.23047 125.543 61.30078 125.7266C 61.36719 125.9102 61.42578 125.9961 61.42578 125.9141C 61.42578 125.8398 61.36719 125.625 61.30078 125.4414C 61.23047 125.2617 61.17188 125.1758 61.17188 125.2539M55.94922 126.0195C 55.88672 126.2344 55.85156 126.4258 55.87109 126.4492C 55.89453 126.4688 55.96484 126.3125 56.02734 126.0977C 56.09375 125.8828 56.12891 125.6914 56.10547 125.668C 56.08594 125.6484 56.01563 125.8047 55.94922 126.0195M94.39063 126.6758C 94.30859 126.832 94.26563 126.9609 94.28906 126.9609C 94.31641 126.9609 94.40234 126.832 94.48438 126.6758C 94.56641 126.5195 94.60938 126.3906 94.58594 126.3906C 94.55859 126.3906 94.47266 126.5195 94.39063 126.6758M103.6289 126.7773C 103.5195 126.9922 103.4492 127.1836 103.4688 127.2031C 103.4883 127.2227 103.5977 127.0508 103.7109 126.8164C 103.9688 126.2852 103.8984 126.2539 103.6289 126.7773M99.06641 127.3633C 98.38672 128.3867 98.17188 128.7344 98.29297 128.6172C 98.47266 128.4492 99.69141 126.5781 99.625 126.5781C 99.60547 126.5781 99.35156 126.9336 99.06641 127.3633M61.64453 126.7695C 61.64453 126.8477 61.70313 127.0625 61.77344 127.2422C 61.84375 127.4258 61.90234 127.5117 61.90234 127.4336C 61.90234 127.3555 61.84375 127.1445 61.77344 126.9609C 61.70313 126.7773 61.64453 126.6914 61.64453 126.7695M69.78125 127.2539C 69.67188 127.4648 69.59766 127.6563 69.61719 127.6797C 69.63672 127.6992 69.74609 127.5234 69.85938 127.2891C 70.11719 126.7578 70.05078 126.7266 69.78125 127.2539M76.11719 127.125C 76.33984 127.1445 76.67969 127.1445 76.875 127.125C 77.07031 127.1016 76.88672 127.0859 76.46875 127.0859C 76.05469 127.0859 75.89453 127.1055 76.11719 127.125M94.01172 127.3398C 93.92969 127.4961 93.88672 127.625 93.91016 127.625C 93.9375 127.625 94.02344 127.4961 94.10547 127.3398C 94.1875 127.1836 94.23047 127.0547 94.20703 127.0547C 94.17969 127.0547 94.09375 127.1836 94.01172 127.3398M108.7539 127.207C 108.3906 127.3633 107.9414 127.7539 107.7852 128.0508C 107.7305 128.1563 107.8516 128.0547 108.0547 127.8281C 108.3125 127.543 108.5781 127.3633 108.9453 127.2383C 109.2305 127.1406 109.3789 127.0586 109.2773 127.0625C 109.1719 127.0625 108.9375 127.125 108.7539 127.207M55.47656 127.5391C 55.41406 127.75 55.375 127.9453 55.39844 127.9648C 55.42188 127.9844 55.48828 127.8281 55.55469 127.6133C 55.61719 127.3984 55.65234 127.207 55.63281 127.1875C 55.60938 127.1641 55.53906 127.3242 55.47656 127.5391M77.89063 127.4023C 78.27344 127.6016 78.58984 127.8945 78.80469 128.2383C 78.90234 128.3945 78.98047 128.4727 78.98438 128.4063C 78.98438 128.1289 77.97656 127.2344 77.68359 127.2461C 77.64063 127.25 77.73438 127.3203 77.89063 127.4023M111.1914 127.4766C 111.3594 127.6133 111.6094 127.8633 111.7461 128.0313C 111.8867 128.1992 111.9648 128.2695 111.9258 128.1914C 111.7383 127.8281 111.4961 127.5625 111.207 127.3984L111.207 127.3984L110.8906 127.2266L111.1914 127.4766zM74.36328 127.6953C 74.20313 127.8359 73.99609 128.082 73.91016 128.2383C 73.75391 128.5234 73.75391 128.5234 73.92578 128.2891C 74.01953 128.1563 74.24219 127.9102 74.42578 127.7422C 74.82422 127.3672 74.77734 127.332 74.36328 127.6953M83.07422 127.7656C 83.07422 127.8164 83.13281 128.0117 83.20313 128.1914C 83.27344 128.375 83.33203 128.4609 83.33203 128.3828C 83.33203 128.3047 83.27734 128.1133 83.20703 127.957C 83.13281 127.7969 83.07422 127.7148 83.07422 127.7656M93.74609 127.7891C 93.27734 128.6289 93.00781 129.168 93.08203 129.0938C 93.21484 128.9609 93.89844 127.7188 93.83594 127.7188C 93.80859 127.7188 93.76563 127.75 93.74609 127.7891M69.41797 128.1094C 69.35938 128.2773 69.32813 128.4297 69.34766 128.4492C 69.36719 128.4688 69.42969 128.3477 69.48828 128.1836C 69.55078 128.0117 69.57813 127.8594 69.55859 127.8398C 69.53906 127.8203 69.47656 127.9414 69.41797 128.1094M62.21484 128.5703C 62.21484 128.6484 62.27344 128.8633 62.33984 129.0469C 62.41406 129.2266 62.46875 129.3125 62.46875 129.2344C 62.46875 129.1563 62.41406 128.9453 62.33984 128.7617C 62.27344 128.5781 62.21484 128.4922 62.21484 128.5703M103.0898 128.8086C 103.0898 129.0156 103.1094 129.0898 103.1328 128.9727C 103.1563 128.8555 103.1563 128.6836 103.1289 128.5938C 103.1055 128.5039 103.0898 128.5977 103.0898 128.8086M55.00391 129.0547C 54.9375 129.2695 54.90234 129.4609 54.92578 129.4805C 54.94531 129.5039 55.01563 129.3438 55.08203 129.1328C 55.14453 128.918 55.17969 128.7266 55.15625 128.7031C 55.13672 128.6836 55.06641 128.8398 55.00391 129.0547M116.5508 128.9492C 116.5508 129.1328 116.5703 129.207 116.5938 129.1172C 116.6172 129.0234 116.6172 128.875 116.5938 128.7852C 116.5703 128.6953 116.5508 128.7695 116.5508 128.9492M97.64453 129.543C 96.96484 130.5664 96.75 130.9141 96.875 130.8008C 97.05078 130.6289 98.26953 128.7617 98.20313 128.7617C 98.17969 128.7617 97.92969 129.1133 97.64453 129.543M107.4492 129.1406C 107.4492 129.3242 107.4688 129.3984 107.4922 129.3086C 107.5156 129.2148 107.5156 129.0664 107.4922 128.9766C 107.4688 128.8828 107.4492 128.957 107.4492 129.1406M92.77734 129.5195C 92.69531 129.6758 92.65234 129.8047 92.67969 129.8047C 92.70313 129.8047 92.79297 129.6758 92.875 129.5195C 92.95313 129.3633 93 129.2344 92.97266 129.2344C 92.94531 129.2344 92.85938 129.3633 92.77734 129.5195M116.625 129.7578L116.625 130.0898L112.3711 130.0898L112.332 129.7813C 112.293 129.4766 112.293 129.4766 112.2773 129.8281L112.2773 129.8281L112.2617 130.1836L116.7188 130.1836L116.7188 129.8047C 116.7188 129.5938 116.6992 129.4258 116.6719 129.4258C 116.6445 129.4258 116.625 129.5742 116.625 129.7578M107.4297 129.7656C 107.4297 129.918 107.4688 130.1055 107.5195 130.1836C 107.582 130.2813 107.5938 130.2031 107.5547 129.9453C 107.4805 129.4766 107.4258 129.3984 107.4297 129.7656M58.66406 129.6719C 58.62891 129.7109 58.59766 129.8047 58.59766 129.8867C 58.59766 129.9922 58.625 130.0039 58.70313 129.9258C 58.75781 129.8672 58.79297 129.7695 58.76953 129.7109C 58.75 129.6523 58.70313 129.6328 58.66406 129.6719M79.28906 130.1367C 79.29297 130.3438 79.3125 130.418 79.33203 130.3008C 79.35547 130.1836 79.35547 130.0117 79.33203 129.9219C 79.30859 129.832 79.28906 129.9258 79.28906 130.1367M103.0938 130.1836C 103.0938 130.418 103.1094 130.5156 103.1328 130.3945C 103.1563 130.2813 103.1563 130.0859 103.1328 129.9688C 103.1094 129.8516 103.0938 129.9492 103.0938 130.1836M83.65234 130.1836C 83.65234 130.3672 83.67188 130.4414 83.69531 130.3477C 83.71875 130.2578 83.71875 130.1094 83.69531 130.0156C 83.67188 129.9258 83.65234 130 83.65234 130.1836M92.39844 130.1836C 92.31641 130.3398 92.27344 130.4688 92.30078 130.4688C 92.32422 130.4688 92.41406 130.3398 92.49219 130.1836C 92.57422 130.0273 92.62109 129.8984 92.59375 129.8984C 92.56641 129.8984 92.48047 130.0273 92.39844 130.1836M62.6875 130.0898C 62.6875 130.168 62.74609 130.3789 62.81641 130.5625C 62.88672 130.7461 62.94531 130.8281 62.94531 130.7539C 62.94531 130.6758 62.88672 130.4609 62.81641 130.2773C 62.74609 130.0938 62.6875 130.0117 62.6875 130.0898M54.52734 130.5703C 54.46484 130.7852 54.42969 130.9766 54.44922 131C 54.47266 131.0195 54.54297 130.8633 54.60547 130.6484C 54.66797 130.4336 54.70313 130.2422 54.68359 130.2227C 54.66406 130.1992 54.59375 130.3555 54.52734 130.5703M92.01953 130.8477C 91.9375 131.0039 91.89453 131.1328 91.92188 131.1328C 91.94531 131.1328 92.03516 131.0039 92.11328 130.8477C 92.19531 130.6914 92.24219 130.5625 92.21484 130.5625C 92.1875 130.5625 92.10156 130.6914 92.01953 130.8477M58.98828 130.8477C 58.98828 130.9258 59.02734 131.0742 59.07031 131.1797C 59.12109 131.2969 59.15234 131.3164 59.15234 131.2266C 59.15234 131.1484 59.11719 131 59.07031 130.8945C 59.01953 130.7734 58.98828 130.7578 58.98828 130.8477M83.72266 130.8945C 83.72266 131.0117 83.39063 131.0391 81.51953 131.0625L81.51953 131.0625L79.3125 131.0859L81.56641 131.1094C 83.76172 131.1328 83.81641 131.125 83.81641 130.9414C 83.81641 130.8398 83.79688 130.7539 83.76953 130.7539C 83.74609 130.7539 83.72266 130.8164 83.72266 130.8945M108.3047 131.25C 108.707 131.6211 110.1172 132.4609 110.332 132.457C 110.375 132.457 110.0508 132.2617 109.6094 132.0234C 109.1641 131.7852 108.5898 131.4219 108.3281 131.2109L108.3281 131.2109L107.8555 130.832L108.3047 131.25zM68.76953 131.3672C 68.76953 131.6289 68.78906 131.7266 68.80859 131.582C 68.83203 131.4375 68.83203 131.2227 68.80859 131.1055C 68.78516 130.9883 68.76953 131.1094 68.76953 131.3672M73.13672 131.6992C 73.13672 132.1445 73.15234 132.3242 73.17188 132.1055C 73.19141 131.8828 73.19141 131.5195 73.17188 131.2969C 73.15234 131.0742 73.13672 131.2578 73.13672 131.6992M96.31641 131.582C 95.73047 132.4688 95.52344 132.8086 95.64063 132.6953C 95.82031 132.5234 96.84766 130.9414 96.78125 130.9414C 96.75781 130.9414 96.55078 131.2305 96.31641 131.582M58.17578 131.4688C 58.14063 131.6094 58.13281 131.7422 58.15625 131.7656C 58.17578 131.7852 58.22266 131.6914 58.25781 131.5508C 58.29297 131.4141 58.30469 131.2813 58.28125 131.2578C 58.25781 131.2344 58.21094 131.332 58.17578 131.4688M54.05469 132.0859C 53.98828 132.3008 53.95703 132.4961 53.97656 132.5156C 53.99609 132.5391 54.06641 132.3789 54.13281 132.1641C 54.19531 131.9531 54.23047 131.7578 54.21094 131.7383C 54.1875 131.7188 54.11719 131.875 54.05469 132.0859M103.4453 131.7344C 103.4453 131.8398 103.8203 132.5547 103.875 132.5547C 103.9023 132.5547 103.832 132.3711 103.7188 132.1523C 103.5 131.7148 103.4453 131.6328 103.4453 131.7344M63.25781 131.8906C 63.25781 131.9688 63.3125 132.1797 63.38672 132.3633C 63.45703 132.5469 63.51172 132.6328 63.51172 132.5547C 63.51172 132.4766 63.45703 132.2617 63.38672 132.0781C 63.3125 131.8984 63.25781 131.8125 63.25781 131.8906M59.46484 132.6484C 59.46484 132.7266 59.5 132.875 59.54297 132.9805C 59.59766 133.0977 59.625 133.1172 59.625 133.0273C 59.625 132.9492 59.58984 132.8008 59.54297 132.6953C 59.49219 132.5781 59.46484 132.5586 59.46484 132.6484M110.7461 132.6328C 110.8242 132.6797 110.9961 132.75 111.125 132.7852C 111.2891 132.8281 111.3203 132.8203 111.2188 132.7578C 111.1406 132.7109 110.9727 132.6445 110.8398 132.6094C 110.6758 132.5625 110.6484 132.5703 110.7461 132.6328M103.9766 132.7422C 104.2383 133.2617 105.4688 134.4414 106.1836 134.8594C 106.6563 135.1328 106.5234 134.9805 105.9766 134.6172C 105.4414 134.2617 104.4688 133.3555 104.1172 132.8867C 104 132.7305 103.9375 132.6641 103.9766 132.7422M95.36719 133.0781C 95.28516 133.2617 95.28516 133.3438 95.375 133.4336C 95.46484 133.5234 95.48047 133.5156 95.42969 133.3906C 95.39844 133.3047 95.41797 133.1445 95.47656 133.0352C 95.53516 132.9258 95.55859 132.8398 95.53125 132.8398C 95.5 132.8398 95.42578 132.9453 95.36719 133.0781M111.6953 133.0273C 111.875 133.1289 112.0703 133.2109 112.1211 133.2109C 112.1719 133.2109 112.0664 133.1289 111.8828 133.0273C 111.7031 132.9258 111.5078 132.8477 111.457 132.8477C 111.4063 132.8477 111.5117 132.9258 111.6953 133.0273M53.58203 133.6055C 53.51563 133.8203 53.48047 134.0117 53.50391 134.0313C 53.52344 134.0547 53.59375 133.8984 53.65625 133.6836C 53.72266 133.4688 53.75781 133.2773 53.73438 133.2539C 53.71484 133.2344 53.64453 133.3906 53.58203 133.6055M63.73047 133.4063C 63.73047 133.4844 63.78906 133.6992 63.85938 133.8828C 63.92969 134.0625 63.98828 134.1484 63.98828 134.0703C 63.98828 133.9922 63.92969 133.7773 63.85938 133.5977C 63.78906 133.4141 63.73047 133.3281 63.73047 133.4063M57.60938 133.6523C 57.57422 133.7891 57.5625 133.9219 57.58594 133.9453C 57.60547 133.9688 57.65234 133.8711 57.69141 133.7305C 57.72266 133.5938 57.73438 133.4609 57.71094 133.4375C 57.69141 133.418 57.64453 133.5117 57.60938 133.6523M112.8789 133.5703C 112.9297 133.6211 113.1445 133.7578 113.3555 133.875C 113.5625 133.9922 113.6484 134.0156 113.543 133.9297C 113.332 133.7539 112.7305 133.4297 112.8789 133.5703M96.14453 134.9258C 96.40625 135.4453 96.64063 135.8711 96.66797 135.8711C 96.69531 135.8711 96.5 135.4453 96.23828 134.9258C 95.97656 134.4023 95.74219 133.9766 95.71484 133.9766C 95.69141 133.9766 95.88281 134.4023 96.14453 134.9258M114.1563 134.3945C 114.3398 134.5469 114.7461 134.9336 115.0547 135.25C 115.4766 135.6836 115.543 135.7266 115.3125 135.4297C 115.0391 135.0742 114.3594 134.457 113.9648 134.2109C 113.8828 134.1602 113.9688 134.2422 114.1563 134.3945M53.10547 135.1211C 53.04297 135.3359 53.00781 135.5273 53.02734 135.5508C 53.05078 135.5703 53.12109 135.4141 53.18359 135.1992C 53.25 134.9883 53.28125 134.793 53.26172 134.7734C 53.23828 134.75 53.17188 134.9102 53.10547 135.1211M60.03125 134.8281C 60.03125 134.9063 60.07031 135.0586 60.11328 135.1602C 60.16406 135.2813 60.19531 135.2969 60.19531 135.207C 60.19531 135.1289 60.15625 134.9805 60.11328 134.875C 60.0625 134.7578 60.03125 134.7383 60.03125 134.8281M106.5742 135.0664C 106.5742 135.1289 108.1016 135.8945 108.1445 135.8516C 108.1641 135.832 107.8164 135.6367 107.375 135.418C 106.9336 135.1992 106.5742 135.043 106.5742 135.0664M64.30078 135.207C 64.30078 135.2852 64.35547 135.5 64.42969 135.6836C 64.49609 135.8672 64.55469 135.9492 64.55469 135.8711C 64.55469 135.793 64.49609 135.582 64.42969 135.3984C 64.35547 135.2148 64.30078 135.1289 64.30078 135.207M57.13281 135.4531C 57.09766 135.5938 57.08984 135.7227 57.10938 135.7461C 57.13281 135.7695 57.17969 135.6719 57.21484 135.5352C 57.25 135.3945 57.26172 135.2617 57.23828 135.2422C 57.21484 135.2188 57.16797 135.3125 57.13281 135.4531M108.4688 136.0156C 108.6016 136.0898 108.75 136.1484 108.8008 136.1484C 108.8555 136.1484 108.7891 136.0898 108.6602 136.0156C 108.5313 135.9414 108.3789 135.8789 108.3281 135.8789C 108.2773 135.8789 108.3398 135.9414 108.4688 136.0156M115.8398 136.3398C 115.9844 136.5938 116.1172 136.7891 116.1367 136.7695C 116.1797 136.7266 115.6914 135.8711 115.625 135.8711C 115.6016 135.8711 115.6992 136.082 115.8398 136.3398M37.02344 140.6602C 37.02344 143.2148 37.03516 144.2461 37.05078 142.9531C 37.06641 141.6602 37.06641 139.5703 37.05078 138.3086C 37.03516 137.0469 37.02344 138.1055 37.02344 140.6602M43.375 140.6602C 43.375 143.2148 43.38672 144.2461 43.40234 142.9531C 43.41797 141.6602 43.41797 139.5703 43.40234 138.3086C 43.38672 137.0469 43.375 138.1055 43.375 140.6602M52.63281 136.6406C 52.57031 136.8555 52.53125 137.0469 52.55469 137.0664C 52.57422 137.0898 52.64453 136.9297 52.71094 136.7188C 52.77344 136.5039 52.80859 136.3125 52.78516 136.2891C 52.76563 136.2695 52.69531 136.4258 52.63281 136.6406M97.42578 137.3906C 97.71094 137.9648 97.96875 138.4336 97.99609 138.4336C 98.01953 138.4336 97.80859 137.9648 97.51953 137.3906C 97.23047 136.8164 96.97656 136.3477 96.94922 136.3477C 96.92188 136.3477 97.13672 136.8164 97.42578 137.3906M110.1875 136.7773C 110.6367 137.0117 111.1914 137.3594 111.418 137.543L111.418 137.543L111.8359 137.8789L111.4336 137.5039C 111.0703 137.1641 109.6563 136.3398 109.4531 136.3477C 109.4063 136.3516 109.7383 136.5469 110.1875 136.7773M60.50781 136.6328C 60.50781 136.707 60.54297 136.8594 60.58984 136.9609C 60.64063 137.082 60.66797 137.0977 60.66797 137.0117C 60.66797 136.9336 60.63281 136.7813 60.58984 136.6797C 60.53516 136.5586 60.50781 136.543 60.50781 136.6328M73.13672 137.3906C 73.13672 137.832 73.15234 138.0117 73.17188 137.793C 73.19141 137.5703 73.19141 137.207 73.17188 136.9883C 73.15234 136.7656 73.13672 136.9453 73.13672 137.3906M64.86719 137.0117C 64.86719 137.0898 64.92578 137.3008 64.99609 137.4844C 65.06641 137.668 65.125 137.7539 65.125 137.6719C 65.125 137.5977 65.06641 137.3828 64.99609 137.1992C 64.92578 137.0156 64.86719 136.9336 64.86719 137.0117M116.1641 136.9609C 116.1641 137.0156 116.2227 137.207 116.293 137.3906C 116.3633 137.5703 116.4219 137.6563 116.4219 137.5781C 116.4258 137.5 116.3672 137.3086 116.2969 137.1523C 116.2266 136.9961 116.1641 136.9102 116.1641 136.9609M56.70313 137.1289C 56.69922 137.2813 56.85156 137.293 58.71484 137.2734L58.71484 137.2734L60.73047 137.25L58.78906 137.2227C 57.38672 137.2031 56.83203 137.1641 56.77734 137.0781C 56.72656 136.9961 56.70313 137.0117 56.70313 137.1289M91.5625 138.0547L90.73828 139.1016L90.78906 145.3086L90.8125 142.1992L90.83594 139.0938L91.58984 138.1445C 92.48438 137.0234 92.41406 137.0508 92.74219 137.6875C 93.08203 138.3438 93.09375 138.2188 92.75781 137.5352C 92.43359 136.875 92.53516 136.832 91.5625 138.0547M68.76953 137.7227C 68.76953 137.9844 68.78906 138.0781 68.80859 137.9336C 68.83203 137.7891 68.83203 137.5781 68.80859 137.4609C 68.78516 137.3438 68.76953 137.4609 68.76953 137.7227M52.15625 138.1563C 52.09375 138.3711 52.05859 138.5625 52.07813 138.5859C 52.10156 138.6055 52.17188 138.4492 52.23438 138.2344C 52.30078 138.0195 52.33594 137.8281 52.3125 137.8047C 52.29297 137.7852 52.22266 137.9414 52.15625 138.1563M80.42969 138.125C 81.04297 138.1406 82.04297 138.1406 82.65625 138.125C 83.26953 138.1055 82.76953 138.0938 81.54297 138.0938C 80.31641 138.0938 79.81641 138.1055 80.42969 138.125M116.5508 138.5273C 116.5508 138.7109 116.5703 138.7852 116.5938 138.6914C 116.6172 138.6016 116.6172 138.4531 116.5938 138.3633C 116.5703 138.2695 116.5508 138.3438 116.5508 138.5273M79.29297 138.7656C 79.29688 139.0234 79.3125 139.1211 79.33594 138.9766C 79.35547 138.832 79.35547 138.6172 79.33203 138.5039C 79.3125 138.3867 79.29297 138.5039 79.29297 138.7656M65.34375 138.5273C 65.34375 138.6055 65.40234 138.8203 65.46875 139C 65.54297 139.1836 65.59766 139.2695 65.59766 139.1914C 65.59766 139.1133 65.54297 138.8984 65.46875 138.7188C 65.40234 138.5352 65.34375 138.4492 65.34375 138.5273M73.21875 138.7188C 73.21875 138.8984 73.23828 138.9727 73.26563 138.8828C 73.28906 138.793 73.28906 138.6406 73.26563 138.5508C 73.23828 138.4609 73.21875 138.5352 73.21875 138.7188M83.65234 138.8125C 83.65234 139.0469 83.67188 139.1406 83.69531 139.0234C 83.71875 138.9063 83.71875 138.7148 83.69531 138.5977C 83.67188 138.4805 83.65234 138.5781 83.65234 138.8125M93.12109 138.4805C 93.12109 138.5313 93.26563 138.8516 93.44141 139.1914C 93.62109 139.5313 93.76563 139.7656 93.76563 139.7109C 93.76563 139.6602 93.62109 139.3398 93.44141 139C 93.26563 138.6641 93.12109 138.4297 93.12109 138.4805M102.5156 138.9297L102.5313 139.4297L102.5664 138.9766L102.6016 138.5273L106.8438 138.5273L106.8867 138.7383C 106.9219 138.9219 106.9297 138.918 106.9414 138.6914L106.9414 138.6914L106.9531 138.4336L102.4961 138.4336L102.5156 138.9297zM98.65625 139.7617C 98.94531 140.332 99.19922 140.8008 99.22656 140.8008C 99.25391 140.8008 99.03906 140.332 98.75391 139.7617C 98.46484 139.1875 98.20703 138.7188 98.17969 138.7188C 98.15625 138.7188 98.36719 139.1875 98.65625 139.7617M112.1953 139.1914C 112.1953 139.4258 112.2109 139.5234 112.2344 139.4023C 112.2578 139.2891 112.2578 139.0938 112.2344 138.9766C 112.2109 138.8594 112.1953 138.957 112.1953 139.1914M51.68359 139.6758C 51.62109 139.8867 51.58594 140.082 51.60547 140.1016C 51.62891 140.1211 51.69922 139.9648 51.76172 139.75C 51.82422 139.5352 51.85938 139.3438 51.83984 139.3242C 51.81641 139.3008 51.74609 139.4609 51.68359 139.6758M116.6445 139.5703C 116.6445 139.7539 116.6641 139.8281 116.6914 139.7344C 116.7148 139.6445 116.7148 139.4961 116.6914 139.4023C 116.6641 139.3125 116.6445 139.3867 116.6445 139.5703M112.1914 139.9961C 112.1914 140.2031 112.2109 140.2813 112.2344 140.1602C 112.2578 140.043 112.2578 139.875 112.2344 139.7813C 112.2109 139.6914 112.1914 139.7891 112.1914 139.9961M79 140.2031C 78.85938 140.6641 78.92969 140.7305 79.07813 140.2813C 79.14063 140.0898 79.17188 139.918 79.14844 139.8945C 79.125 139.875 79.05859 140.0117 79 140.2031M65.91406 140.3281C 65.91406 140.4063 65.96875 140.6211 66.03906 140.8008C 66.10938 140.9844 66.16797 141.0703 66.16797 140.9922C 66.16797 140.9141 66.10938 140.6992 66.03906 140.5195C 65.96875 140.3359 65.91406 140.25 65.91406 140.3281M73.58203 140.2734C 73.56641 140.625 74.59766 141.75 74.93359 141.75C 74.98438 141.75 74.85547 141.6328 74.64453 141.4883C 74.23438 141.2148 73.98438 140.9336 73.73828 140.4688C 73.65234 140.3164 73.58203 140.2266 73.58203 140.2734M93.97266 140.2813C 93.97266 140.332 94.11719 140.6523 94.29297 140.9922C 94.47266 141.332 94.61719 141.5664 94.61719 141.5156C 94.61719 141.4609 94.47266 141.1406 94.29297 140.8008C 94.11719 140.4648 93.97266 140.2305 93.97266 140.2813M107.1992 140.4219C 107.3477 140.9805 108.418 142.0273 108.625 141.8203C 108.6484 141.7969 108.543 141.7266 108.3906 141.6641C 108.0352 141.5156 107.5781 141.043 107.332 140.5625C 107.2227 140.3477 107.1641 140.2891 107.1992 140.4219M83.23047 140.875C 83.14453 141.1719 83.08594 141.4297 83.10547 141.4453C 83.15234 141.5 83.45703 140.5273 83.42188 140.4219C 83.40625 140.375 83.32031 140.5742 83.23047 140.875M116.5508 140.6133C 116.5508 140.7969 116.5703 140.8711 116.5938 140.7813C 116.6172 140.6875 116.6172 140.5391 116.5938 140.4492C 116.5703 140.3555 116.5508 140.4297 116.5508 140.6133M69.36328 140.8008C 69.40234 140.9336 69.46875 141.1016 69.51563 141.1836C 69.57813 141.2813 69.58594 141.2539 69.54297 141.0859C 69.50391 140.957 69.4375 140.7852 69.39063 140.707C 69.32813 140.6094 69.32031 140.6367 69.36328 140.8008M78.46484 141.1602C 78.13281 141.5625 78.125 141.5781 78.40234 141.3242C 78.66797 141.082 78.95703 140.6992 78.86719 140.7109C 78.85156 140.7148 78.67188 140.9141 78.46484 141.1602M51.21094 141.1914C 51.14453 141.4063 51.10938 141.5977 51.13281 141.6172C 51.15234 141.6406 51.22266 141.4805 51.28516 141.2695C 51.35156 141.0547 51.38672 140.8633 51.36328 140.8398C 51.34375 140.8203 51.27344 140.9766 51.21094 141.1914M58.64063 140.875C 60.83594 140.8945 61.59375 140.9297 61.65625 141.0156C 61.71875 141.1016 61.73047 141.0977 61.69922 140.9922C 61.66797 140.8711 61.25 140.8516 58.68359 140.8477L58.68359 140.8477L55.70703 140.8477L58.64063 140.875zM111.6445 141.3047C 111.4883 141.4727 111.2773 141.6641 111.1719 141.7305C 111.0078 141.832 111.0156 141.8359 111.2188 141.7422C 111.5156 141.6055 111.7773 141.3789 111.8945 141.1602C 112.0195 140.9297 111.9766 140.9531 111.6445 141.3047M99.9375 142.2266C 100.1992 142.7461 100.4336 143.1719 100.4609 143.1719C 100.4844 143.1719 100.293 142.7461 100.0313 142.2266C 99.76953 141.7031 99.53516 141.2773 99.50781 141.2773C 99.48047 141.2773 99.67578 141.7031 99.9375 142.2266M55.52344 141.6133C 55.48828 141.7539 55.47656 141.8867 55.5 141.9102C 55.51953 141.9297 55.56641 141.8359 55.60156 141.6992C 55.63672 141.5586 55.64844 141.4258 55.625 141.4023C 55.60156 141.3828 55.55469 141.4766 55.52344 141.6133M69.59766 141.3984C 69.58203 141.9727 71.24219 144.0156 72.14063 144.5313C 72.5625 144.7695 72.51563 144.6563 72.08594 144.3945C 71.25781 143.8867 70.53906 143.0586 69.90625 141.8945C 69.73828 141.582 69.59766 141.3594 69.59766 141.3984M61.83203 141.6563C 61.83203 141.7344 61.87109 141.8828 61.91406 141.9883C 61.96484 142.1055 61.99609 142.125 61.99609 142.0352C 61.99609 141.957 61.96094 141.8086 61.91406 141.7031C 61.86328 141.5859 61.83203 141.5664 61.83203 141.6563M77.55859 141.7109C 77.34766 141.7891 77.29688 141.8359 77.41797 141.8359C 77.52344 141.8398 77.71484 141.7773 77.84375 141.7031C 78.13281 141.5391 78.00781 141.5391 77.55859 141.7109M82.74609 142.0859C 82.60547 142.3711 82.51172 142.6055 82.53516 142.6055C 82.60156 142.6055 83.07813 141.6445 83.03906 141.6016C 83.01953 141.582 82.88672 141.8008 82.74609 142.0859M66.38672 141.8477C 66.38672 141.9258 66.44141 142.1367 66.51563 142.3203C 66.58594 142.5 66.64063 142.5859 66.64063 142.5117C 66.64063 142.4297 66.58594 142.2188 66.51563 142.0352C 66.44141 141.8516 66.38672 141.7656 66.38672 141.8477M115.9727 142.4492C 115.582 143.2656 114.6719 144.2109 113.8281 144.6641C 113.5156 144.832 113.3008 144.9688 113.3555 144.9727C 114.0742 144.9844 116.7148 142.1797 116.332 141.8047C 116.3086 141.7852 116.1484 142.0742 115.9727 142.4492M75.59375 141.9102C 75.68359 141.9336 75.83203 141.9336 75.92578 141.9102C 76.01563 141.8867 75.94141 141.8672 75.75781 141.8672C 75.57422 141.8672 75.5 141.8867 75.59375 141.9102M76.58984 141.9141C 76.70703 141.9336 76.89844 141.9336 77.01563 141.9141C 77.13281 141.8906 77.03516 141.8711 76.80078 141.8711C 76.56641 141.8711 76.46875 141.8906 76.58984 141.9141M109.5391 142.0078C 109.7344 142.0313 110.0508 142.0313 110.2461 142.0078C 110.4453 141.9883 110.2852 141.9727 109.8945 141.9727C 109.5 141.9727 109.3398 141.9883 109.5391 142.0078M94.82422 142.082C 94.82422 142.1367 94.97266 142.4531 95.14844 142.793C 95.32422 143.1328 95.47266 143.3672 95.47266 143.3164C 95.47266 143.2617 95.32422 142.9453 95.14844 142.6055C 94.97266 142.2656 94.82422 142.0313 94.82422 142.082M50.73438 142.707C 50.67188 142.9219 50.63672 143.1133 50.65625 143.1367C 50.67969 143.1563 50.75 143 50.8125 142.7852C 50.87891 142.5703 50.91406 142.3789 50.89063 142.3594C 50.86719 142.3359 50.80078 142.4922 50.73438 142.707M103.8398 142.793C 104.1016 143.1914 104.7656 143.8516 105.1836 144.1328C 105.3477 144.2422 105.2734 144.1484 105.0156 143.918C 104.5742 143.5313 104.3398 143.2891 103.8242 142.6992C 103.6367 142.4805 103.6367 142.4922 103.8398 142.793M82.04688 143.168C 81.6875 143.6094 81.23438 144.0313 80.68359 144.4336C 80.46094 144.5977 80.46484 144.5977 80.76953 144.4336C 81.14063 144.2344 81.97656 143.4492 82.28516 143.0078C 82.60938 142.5469 82.48047 142.6328 82.04688 143.168M62.30859 143.457C 62.30859 143.5352 62.34375 143.6836 62.39063 143.7891C 62.44141 143.9102 62.47266 143.9258 62.47266 143.8359C 62.47266 143.7578 62.43359 143.6094 62.39063 143.5039C 62.33984 143.3867 62.30859 143.3672 62.30859 143.457M54.95313 143.7969C 54.91797 143.9336 54.90625 144.0664 54.92969 144.0898C 54.95313 144.1133 55 144.0156 55.03516 143.8789C 55.07031 143.7383 55.07813 143.6055 55.05859 143.5859C 55.03516 143.5625 54.98828 143.6563 54.95313 143.7969M66.95313 143.6484C 66.95313 143.7266 67.01172 143.9375 67.08203 144.1211C 67.15234 144.3047 67.21094 144.3906 67.21094 144.3125C 67.21094 144.2344 67.15234 144.0195 67.08203 143.8359C 67.01172 143.6523 66.95313 143.5703 66.95313 143.6484M95.58594 143.6953C 95.58594 143.7461 95.75 144.1094 95.95313 144.5C 96.15625 144.8906 96.32422 145.168 96.32422 145.1172C 96.32422 145.0625 96.15625 144.7031 95.95313 144.3125C 95.75 143.918 95.58594 143.6445 95.58594 143.6953M101.0938 144.4492C 101.3125 144.8906 101.5078 145.2383 101.5273 145.2188C 101.5703 145.1758 100.8047 143.6484 100.7422 143.6484C 100.7188 143.6484 100.875 144.0078 101.0938 144.4492M50.26172 144.2227C 50.19531 144.4375 50.16016 144.6328 50.18359 144.6523C 50.20703 144.6758 50.27344 144.5156 50.33984 144.3008C 50.40234 144.0898 50.4375 143.8945 50.41797 143.875C 50.39453 143.8516 50.32422 144.0117 50.26172 144.2227M105.7188 144.4922C 105.8516 144.5977 106 144.6875 106.0508 144.6875C 106.1523 144.6875 105.9844 144.5547 105.6719 144.3945C 105.5469 144.332 105.5625 144.3633 105.7188 144.4922M79.41016 145.0234C 79.25391 145.0977 79.1875 145.1563 79.26563 145.1563C 79.34375 145.1563 79.51563 145.0977 79.64453 145.0234C 79.94531 144.8516 79.78516 144.8555 79.41016 145.0234M106.668 144.957C 106.7461 145.0078 106.918 145.0742 107.0469 145.1094C 107.2109 145.1563 107.2422 145.1484 107.1445 145.0859C 107.0664 145.0352 106.8945 144.9688 106.7617 144.9336C 106.5977 144.8906 106.5703 144.8984 106.668 144.957M77.34766 145.5156C 77.46484 145.5391 77.63672 145.5391 77.72656 145.5156C 77.81641 145.4883 77.72266 145.4727 77.51172 145.4727C 77.30469 145.4727 77.23047 145.4922 77.34766 145.5156M108.6836 145.5156C 108.7734 145.5391 108.9258 145.5391 109.0156 145.5156C 109.1055 145.4883 109.0313 145.4688 108.8477 145.4688C 108.668 145.4688 108.5938 145.4883 108.6836 145.5156M111.0078 145.5156C 111.125 145.5391 111.2969 145.5391 111.3867 145.5156C 111.4766 145.4883 111.3789 145.4727 111.1719 145.4727C 110.9648 145.4727 110.8906 145.4922 111.0078 145.5156M76.16016 145.6094C 76.25391 145.6328 76.40234 145.6328 76.49219 145.6094C 76.58594 145.5859 76.51172 145.5664 76.32813 145.5664C 76.14453 145.5664 76.07031 145.5859 76.16016 145.6094M109.8711 145.6094C 109.9883 145.6328 110.1602 145.6328 110.25 145.6094C 110.3398 145.5859 110.2422 145.5664 110.0352 145.5664C 109.8281 145.5703 109.7539 145.5898 109.8711 145.6094" stroke="none" fill="#970D20" fill-rule="nonzero" />
	<g transform="matrix(1.333333 0 0 1.333333 0 0)">
	</g>
    <path transform="matrix(1.333333 0 0 1.333333 0 0)"  d="M112.9688 30.81641C 112.9688 33.24219 112.9844 34.23438 112.9961 33.01953C 113.0117 31.80859 113.0117 29.82422 112.9961 28.61328C 112.9844 27.39844 112.9688 28.39063 112.9688 30.81641M34.40234 98.87109C 35.19922 98.88672 36.48047 98.88672 37.24609 98.87109C 38.01172 98.85547 37.35938 98.83984 35.79297 98.83984C 34.23047 98.83984 33.60156 98.85547 34.40234 98.87109M48.01953 98.91797C 47.99609 98.98047 47.98828 103.3672 48 108.6602L48 108.6602L48.02344 118.2852L48.05078 108.5938L48.07031 98.89844L49.28125 98.87109L50.48828 98.83984L49.27734 98.82031C 48.37891 98.80469 48.05469 98.82813 48.01953 98.91797M78.49219 98.87109C 79.28906 98.88672 80.57031 98.88672 81.33594 98.87109C 82.10156 98.85547 81.44922 98.83984 79.88281 98.83984C 78.32031 98.83984 77.69141 98.85547 78.49219 98.87109M96.6875 98.86719L101.8281 98.89453L101.8906 100.8867L101.8867 99.86719L101.8789 98.84766L91.54688 98.84375L96.6875 98.86719L112.9688 30.81641zM106.3125 98.87109C 106.9766 98.88672 108.0664 98.88672 108.7305 98.87109C 109.3945 98.85156 108.8516 98.83984 107.5234 98.83984C 106.1914 98.83984 105.6484 98.85156 106.3125 98.87109M35.41016 104.0156C 35.41016 105.7109 35.42188 106.4023 35.4375 105.5547C 35.45313 104.707 35.45313 103.3203 35.4375 102.4727C 35.42188 101.625 35.41016 102.3203 35.41016 104.0156M94.00781 104.0625L94.01172 107.1914L97.47266 107.1914L100.9336 107.1953L94.0625 107.1406L94.03516 104.0352L94.00781 100.9336L94.00781 104.0625zM107.5664 108.5664C 107.5664 112.7617 107.5781 114.4805 107.5938 112.3828C 107.6094 110.2813 107.6094 106.8477 107.5938 104.75C 107.5781 102.6484 107.5664 104.3672 107.5664 108.5664M42.57422 108.6875C 42.57422 108.707 42.71094 108.8438 42.88281 109L42.88281 109L43.1875 109.2773L42.91016 108.9688C 42.65234 108.6797 42.57422 108.6172 42.57422 108.6875M35.41016 112.6914C 35.41016 114.6211 35.42188 115.3945 35.4375 114.4141C 35.45313 113.4336 35.45313 111.8516 35.4375 110.9063C 35.42188 109.957 35.41016 110.7617 35.41016 112.6914M94.00781 112.7383C 94.00781 114.6406 94.01953 115.418 94.03516 114.4688C 94.05078 113.5156 94.05078 111.957 94.03516 111.0078C 94.01953 110.0547 94.00781 110.832 94.00781 112.7383M60.94531 118.4922C 61.0625 118.5156 61.23438 118.5156 61.32422 118.4922C 61.41406 118.4688 61.32031 118.4492 61.10938 118.4492C 60.90234 118.4492 60.82813 118.4688 60.94531 118.4922M32.66016 123.8555C 32.63672 123.9219 32.62891 128.7734 32.64063 134.6406L32.64063 134.6406L32.66406 145.3086L32.6875 134.5703L32.71094 123.8359L37.02734 123.7813L34.86719 123.7578C 33.20703 123.7422 32.69531 123.7617 32.66016 123.8555M44.5 123.8086C 45.11328 123.8242 46.09375 123.8242 46.67969 123.8086C 47.26172 123.7891 46.75781 123.7773 45.55859 123.7773C 44.35938 123.7773 43.88281 123.7891 44.5 123.8086M57.77344 123.8086C 58.33594 123.8242 59.23047 123.8242 59.76172 123.8086C 60.29688 123.7891 59.83594 123.7773 58.73828 123.7773C 57.64453 123.7773 57.21094 123.7891 57.77344 123.8086M86.42188 123.8555C 86.39844 123.9219 86.38672 128.7734 86.40234 134.6406L86.40234 134.6406L86.42578 145.3086L86.44922 134.5703L86.47266 123.8359L90.78906 123.7813L88.625 123.7578C 86.96875 123.7422 86.45703 123.7617 86.42188 123.8555M97.45313 123.8086C 98.19922 123.8242 99.39453 123.8242 100.1094 123.8086C 100.8242 123.7891 100.2109 123.7773 98.75391 123.7773C 97.29297 123.7773 96.70703 123.7891 97.45313 123.8086" stroke="none" fill="#C8142B" fill-rule="nonzero" />
	<g transform="matrix(1.333333 0 0 1.333333 0 0)">
	</g>
    <path transform="matrix(1.333333 0 0 1.333333 0 0)"  d="M109.2734 30.81641C 109.2734 33.24219 109.2852 34.23438 109.3008 33.01953C 109.3164 31.80859 109.3164 29.82422 109.3008 28.61328C 109.2852 27.39844 109.2734 28.39063 109.2734 30.81641M80.28906 108.3516C 80.72266 108.3672 81.40625 108.3672 81.80859 108.3516C 82.21094 108.332 81.85547 108.3164 81.01953 108.3203C 80.1875 108.3203 79.85938 108.332 80.28906 108.3516" stroke="none" fill="#DF1432" fill-rule="nonzero" />
	<g transform="matrix(1.333333 0 0 1.333333 0 0)">
	</g>
    <path transform="matrix(1.333333 0 0 1.333333 0 0)"  d="M105.5742 30.81641C 105.5742 33.24219 105.5859 34.23438 105.6016 33.01953C 105.6172 31.80859 105.6172 29.82422 105.6016 28.61328C 105.5859 27.39844 105.5742 28.39063 105.5742 30.81641M33.04297 108.5664C 33.04297 113.9102 33.05469 116.0977 33.06641 113.4258C 33.08203 110.75 33.08203 106.3789 33.06641 103.707C 33.05469 101.0313 33.04297 103.2188 33.04297 108.5664M50.39453 108.5664C 50.39453 113.9102 50.40625 116.0977 50.41797 113.4258C 50.43359 110.75 50.43359 106.3789 50.41797 103.707C 50.40625 101.0313 50.39453 103.2188 50.39453 108.5664M77.13281 108.5664C 77.13281 113.9102 77.14453 116.0977 77.15625 113.4258C 77.17188 110.75 77.17188 106.3789 77.15625 103.707C 77.14453 101.0313 77.13281 103.2188 77.13281 108.5664M91.63672 108.5664C 91.63672 113.9102 91.64844 116.0977 91.66406 113.4258C 91.67969 110.75 91.67969 106.3789 91.66406 103.707C 91.64844 101.0313 91.63672 103.2188 91.63672 108.5664M105.1992 108.5664C 105.1992 113.9102 105.207 116.0977 105.2227 113.4258C 105.2383 110.75 105.2383 106.3789 105.2227 103.707C 105.207 101.0313 105.1992 103.2188 105.1992 108.5664M79.5 104.6289C 79.5 106.6641 79.51172 107.4844 79.52734 106.4492C 79.54297 105.418 79.54297 103.7539 79.52734 102.75C 79.51172 101.75 79.5 102.5977 79.5 104.6289M60.91406 108.6914C 60.88672 108.7578 60.87891 109.2383 60.89453 109.7578L60.89453 109.7578L60.92578 110.6992L60.94922 109.6797L60.96875 108.6641L66.89453 108.6094L63.92578 108.5859C 61.53906 108.5703 60.95313 108.5898 60.91406 108.6914M79.5 114.3008C 79.5 116.4922 79.51172 117.375 79.52734 116.2617C 79.54297 115.1523 79.54297 113.3594 79.52734 112.2813C 79.51172 111.2031 79.5 112.1094 79.5 114.3008M73.04688 134.4961C 73.04688 135.5391 73.0625 135.9805 73.07813 135.4727C 73.09766 134.9688 73.09766 134.1172 73.07813 133.5781C 73.0625 133.0391 73.04688 133.4531 73.04688 134.4961M38.51172 136.0391C 39.38281 136.0547 40.83203 136.0547 41.73828 136.0391C 42.64063 136.0234 41.92578 136.0078 40.15625 136.0078C 38.38281 136.0078 37.64453 136.0234 38.51172 136.0391" stroke="none" fill="#F41038" fill-rule="nonzero" />
</g>
</svg>